<?xml version="1.0" encoding="UTF-8"?>
<svg width="200px" height="225px" viewBox="0 0 200 225" version="1.1" xmlns="http://www.w3.org/2000/svg" xmlns:xlink="http://www.w3.org/1999/xlink">
    <!-- Generator: Sketch 45.1 (43504) - http://www.bohemiancoding.com/sketch -->
    <title>hand-left</title>
    <desc>Created with Sketch.</desc>
    <defs></defs>
    <g id="SVG" stroke="none" stroke-width="1" fill="none" fill-rule="evenodd">
        <g id="hand-left">
            <g>
                <path d="M137.480126,224.880383 L136.149169,183.616542 C136.149169,183.616542 127.414576,164.992397 121.151778,150.097472 C119.68686,146.613432 116.171192,135.134745 115.063153,132.365127 C109.218037,117.754872 101.629219,97.3316307 101.629219,97.3316307 C101.629219,97.3316307 96.886921,86.5073701 101.629219,82.0178734 C106.371517,77.5283767 121.151778,105.646598 121.151778,105.646598 L125.246327,110.433862 L129.661725,110.433862 C129.661725,110.433862 122.121644,62.3216715 121.151778,52.0561027 C120.181911,41.7905339 117.644027,28.9675345 123.456676,26.2081695 C129.269324,23.4488045 127.463177,29.0807023 133.298901,49.5268077 C139.134625,69.9729132 145.828405,102.993958 145.828405,102.993958 C145.828405,102.993958 140.891484,36.0393875 140.891484,26.2081695 C140.891484,16.3769516 140.223378,0.00139313889 145.828405,0 C151.433432,-0.00139313889 152.054585,11.2834959 154.637793,26.2081695 C157.221,41.1328432 166.333197,100.957748 166.333197,100.957748 C166.333197,100.957748 165.577047,46.6997607 166.333197,35.199875 C167.089348,23.6999893 167.53901,12.2603795 171.599828,12.2231787 C175.660646,12.1859779 177.43775,14.9272944 177.43775,26.2081695 C177.43775,37.4890447 184.447532,100.957748 184.447532,100.957748 C184.447532,100.957748 189.480387,48.117992 190.242689,40.3719702 C191.004991,32.6259484 192.044092,30.0960151 195.21287,29.9946214 C198.381649,29.8932278 199.606089,38.4938966 199.606089,38.4938966 L199.606089,110.433862 C199.606089,110.433862 200.492389,132.561827 199.606089,143.620362 C198.719789,154.678897 193.941508,181.111898 193.941508,181.111898 L195.21287,223.154075 L137.480126,224.880383 Z" id="hand" fill="#FF5555" transform="translate(149.760766, 112.440191) scale(-1, 1) translate(-149.760766, -112.440191) "></path>
                <path d="M15.479827,150.239234 C38.4365443,150.239234 39.2344498,124.384004 39.2344498,120.229966 C39.2344498,116.075928 39.2245032,134.403774 16.2677859,134.403774 C-6.68893142,134.403774 -7.65550239,120.229966 -7.65550239,120.229966 C-7.65550239,120.229966 -7.47689029,150.239234 15.479827,150.239234 Z" id="moon" fill="#FFA204" transform="translate(15.789474, 134.928230) rotate(-270.000000) translate(-15.789474, -134.928230) "></path>
            </g>
        </g>
    </g>
</svg>