<?xml version="1.0" encoding="UTF-8"?>
<svg width="356px" height="400px" viewBox="0 0 356 400" version="1.1" xmlns="http://www.w3.org/2000/svg" xmlns:xlink="http://www.w3.org/1999/xlink">
    <!-- Generator: Sketch 48.2 (47327) - http://www.bohemiancoding.com/sketch -->
    <title>icon-hand</title>
    <desc>Created with Sketch.</desc>
    <defs></defs>
    <g id="1440-3-present" stroke="none" stroke-width="1" fill="none" fill-rule="evenodd" transform="translate(-183.000000, -250.000000)">
        <g id="icon-hand" transform="translate(183.000000, 250.000000)">
            <path d="M244.714625,399.787347 L242.345521,326.429407 C242.345521,326.429407 226.797945,293.319816 215.650164,266.83995 C213.04261,260.646101 206.784722,240.239547 204.812412,235.315781 C194.408106,209.341994 180.90001,173.03401 180.90001,173.03401 C180.90001,173.03401 172.458719,153.79088 180.90001,145.809553 C189.341301,137.828225 215.650164,187.816174 215.650164,187.816174 L222.938463,196.326865 L230.79787,196.326865 C230.79787,196.326865 217.376526,110.794083 215.650164,92.5441826 C213.923802,74.2942824 209.406369,51.4978391 219.752883,46.5923014 C230.099397,41.6867636 226.884455,51.6990263 237.272043,88.0476582 C247.659632,124.39629 259.574561,183.10037 259.574561,183.10037 C259.574561,183.10037 250.786842,64.0700222 250.786842,46.5923014 C250.786842,29.1145806 249.597612,0.00247669135 259.574561,0 C269.55151,-0.00247669135 270.657162,20.0595482 275.255271,46.5923014 C279.85338,73.1250545 296.073091,179.48044 296.073091,179.48044 C296.073091,179.48044 294.727144,83.0217968 296.073091,62.5775556 C297.419039,42.1333143 298.219438,21.7962302 305.447694,21.7300955 C312.67595,21.6639608 315.839195,26.5374123 315.839195,46.5923014 C315.839195,66.6471905 328.316607,179.48044 328.316607,179.48044 C328.316607,179.48044 337.275089,85.5430968 338.631987,71.7723914 C339.988885,58.0016861 341.838483,53.5040268 347.478909,53.3237714 C353.119335,53.1435161 355.298838,68.4335939 355.298838,68.4335939 L355.298838,196.326865 C355.298838,196.326865 356.876452,235.665471 355.298838,255.325088 C353.721224,274.984706 345.215885,321.976708 345.215885,321.976708 L347.478909,396.718355 L244.714625,399.787347 Z" id="hand" fill="#FF5555" transform="translate(266.574163, 199.893674) scale(-1, 1) translate(-266.574163, -199.893674) "></path>
            <path d="M27.5540921,267.091972 C68.4170489,267.091972 69.8373206,221.127118 69.8373206,213.742162 C69.8373206,206.357205 69.8196157,238.940043 28.9566589,238.940043 C-11.9062979,238.940043 -13.6267943,213.742162 -13.6267943,213.742162 C-13.6267943,213.742162 -13.3088647,267.091972 27.5540921,267.091972 Z" id="moon" fill="#FFA204" transform="translate(28.105263, 239.872408) rotate(-270.000000) translate(-28.105263, -239.872408) "></path>
        </g>
    </g>
</svg>