<?xml version="1.0" encoding="UTF-8"?>
<svg width="99px" height="100px" viewBox="0 0 99 100" version="1.1" xmlns="http://www.w3.org/2000/svg" xmlns:xlink="http://www.w3.org/1999/xlink">
    <!-- Generator: Sketch 48.2 (47327) - http://www.bohemiancoding.com/sketch -->
    <title>icon-tarot</title>
    <desc>Created with Sketch.</desc>
    <defs>
        <rect id="path-1" x="3.63970588" y="1.63339383" width="23.6580882" height="46.2794918" rx="1.45190563"></rect>
        <rect id="path-2" x="3.63970588" y="1.63339383" width="23.6580882" height="46.2794918" rx="1.45190563"></rect>
        <rect id="path-3" x="3.63970588" y="1.63339383" width="23.6580882" height="46.2794918" rx="1.45190563"></rect>
        <rect id="path-4" x="3.63970588" y="1.63339383" width="23.6580882" height="46.2794918" rx="1.45190563"></rect>
    </defs>
    <g id="1440-1-intro" stroke="none" stroke-width="1" fill="none" fill-rule="evenodd" transform="translate(-944.000000, -160.000000)">
        <g id="flex" transform="translate(0.000000, 90.000000)">
            <g id="right" transform="translate(720.000000, 0.000000)">
                <g id="WORK">
                    <g id="Group-2" transform="translate(224.000000, 70.000000)">
                        <g id="tarot">
                            <path d="M9.09714459,59.2735629 C22.7464304,59.2735629 23.220838,43.6434074 23.220838,41.132184 C23.220838,38.6209607 23.2149241,49.7006178 9.56563823,49.7006178 C-4.08364763,49.7006178 -4.65833796,41.132184 -4.65833796,41.132184 C-4.65833796,41.132184 -4.55214126,59.2735629 9.09714459,59.2735629 Z" id="moon-copy-3" fill-opacity="0.5" fill="#292964" transform="translate(9.281250, 50.017665) rotate(-270.000000) translate(-9.281250, -50.017665) "></path>
                            <path d="M9.82508577,59.2735629 C23.4743716,59.2735629 23.9487791,43.6434074 23.9487791,41.132184 C23.9487791,38.6209607 23.9428653,49.7006178 10.2935794,49.7006178 C-3.35570645,49.7006178 -3.93039678,41.132184 -3.93039678,41.132184 C-3.93039678,41.132184 -3.82420009,59.2735629 9.82508577,59.2735629 Z" id="moon" fill="#292964" transform="translate(10.009191, 50.017665) rotate(-270.000000) translate(-10.009191, -50.017665) "></path>
                            <path d="M89.5346446,59.2735629 C103.18393,59.2735629 103.658338,43.6434074 103.658338,41.132184 C103.658338,38.6209607 103.652424,49.7006178 90.0031382,49.7006178 C76.3538524,49.7006178 75.779162,41.132184 75.779162,41.132184 C75.779162,41.132184 75.8853587,59.2735629 89.5346446,59.2735629 Z" id="moon-copy-2" fill-opacity="0.5" fill="#292964" transform="translate(89.718750, 50.017665) scale(-1, 1) rotate(-270.000000) translate(-89.718750, -50.017665) "></path>
                            <path d="M88.8067034,59.2735629 C102.455989,59.2735629 102.930397,43.6434074 102.930397,41.132184 C102.930397,38.6209607 102.924483,49.7006178 89.2751971,49.7006178 C75.6259112,49.7006178 75.0512209,41.132184 75.0512209,41.132184 C75.0512209,41.132184 75.1574176,59.2735629 88.8067034,59.2735629 Z" id="moon-copy" fill="#292964" transform="translate(88.990809, 50.017665) scale(-1, 1) rotate(-270.000000) translate(-88.990809, -50.017665) "></path>
                            <polyline id="star" fill="#FF5555" points="51.0038037 3.62914276 49.5164538 2.96567989 47.9970822 3.80250005 48.3407101 2.37592519 46.9522059 1.66558966 48.5485372 1.39464062 49.1938149 -2.84217094e-14 50.2346549 1.44947448 52.0067916 1.61576509 50.6432231 2.39479948"></polyline>
                            <polyline id="star-copy" fill="#FF5555" points="51.0038037 99.8178905 49.5164538 99.1544276 47.9970822 99.9912478 48.3407101 98.5646729 46.9522059 97.8543374 48.5485372 97.5833884 49.1938149 96.1887477 50.2346549 97.6382222 52.0067916 97.8045128 50.6432231 98.5835472"></polyline>
                            <g id="card" transform="translate(56.363030, 61.049602) rotate(-2.000000) translate(-56.363030, -61.049602) translate(40.894280, 36.276462)">
                                <g id="card-bg" transform="translate(15.468750, 24.773140) rotate(9.000000) translate(-15.468750, -24.773140) ">
                                    <use fill="#FF5555" fill-rule="evenodd" xlink:href="#path-1"></use>
                                    <rect stroke="#FFA204" stroke-width="0.54446461" x="3.91193819" y="1.90562613" width="23.1136236" height="45.7350272" rx="1.45190563"></rect>
                                </g>
                                <path d="M15.3281801,29.2196007 C17.1853303,29.2196007 20.5643382,24.979517 20.5643382,23.121672 C20.5643382,22.5337995 20.0624274,20.2693796 18.5750667,20.3277927 C17.0877059,20.3862058 15.5597426,23.121672 15.5597426,23.121672 C15.5597426,23.121672 13.5814779,20.3847598 12.259231,20.3277927 C10.9369842,20.2708255 10.5551471,22.4147379 10.5551471,23.121672 C10.5551471,24.979517 13.4710299,29.2196007 15.3281801,29.2196007 Z" id="heart" fill="#FF52F4" transform="translate(15.559743, 24.773140) rotate(8.000000) translate(-15.559743, -24.773140) "></path>
                            </g>
                            <g id="card-copy" transform="translate(52.866728, 56.693885) rotate(-2.000000) translate(-52.866728, -56.693885) translate(37.397978, 31.920745)">
                                <g id="card-bg" transform="translate(15.468750, 24.773140) rotate(9.000000) translate(-15.468750, -24.773140) ">
                                    <use fill="#FF5555" fill-rule="evenodd" xlink:href="#path-2"></use>
                                    <rect stroke="#FFA204" stroke-width="0.54446461" x="3.91193819" y="1.90562613" width="23.1136236" height="45.7350272" rx="1.45190563"></rect>
                                </g>
                                <path d="M15.3281801,29.2196007 C17.1853303,29.2196007 20.5643382,24.979517 20.5643382,23.121672 C20.5643382,22.5337995 20.0624274,20.2693796 18.5750667,20.3277927 C17.0877059,20.3862058 15.5597426,23.121672 15.5597426,23.121672 C15.5597426,23.121672 13.5814779,20.3847598 12.259231,20.3277927 C10.9369842,20.2708255 10.5551471,22.4147379 10.5551471,23.121672 C10.5551471,24.979517 13.4710299,29.2196007 15.3281801,29.2196007 Z" id="heart" fill="#FF52F4" transform="translate(15.559743, 24.773140) rotate(8.000000) translate(-15.559743, -24.773140) "></path>
                            </g>
                            <g id="card-copy-2" transform="translate(47.589154, 51.612215) rotate(-2.000000) translate(-47.589154, -51.612215) translate(32.120404, 26.839075)">
                                <g id="card-bg" transform="translate(15.468750, 24.773140) rotate(9.000000) translate(-15.468750, -24.773140) ">
                                    <use fill="#FF5555" fill-rule="evenodd" xlink:href="#path-3"></use>
                                    <rect stroke="#FFA204" stroke-width="0.54446461" x="3.91193819" y="1.90562613" width="23.1136236" height="45.7350272" rx="1.45190563"></rect>
                                </g>
                                <path d="M15.3281801,29.2196007 C17.1853303,29.2196007 20.5643382,24.979517 20.5643382,23.121672 C20.5643382,22.5337995 20.0624274,20.2693796 18.5750667,20.3277927 C17.0877059,20.3862058 15.5597426,23.121672 15.5597426,23.121672 C15.5597426,23.121672 13.5814779,20.3847598 12.259231,20.3277927 C10.9369842,20.2708255 10.5551471,22.4147379 10.5551471,23.121672 C10.5551471,24.979517 13.4710299,29.2196007 15.3281801,29.2196007 Z" id="heart" fill="#FF52F4" transform="translate(15.559743, 24.773140) rotate(8.000000) translate(-15.559743, -24.773140) "></path>
                            </g>
                            <g id="card-copy-3" transform="translate(42.675551, 45.623104) rotate(-2.000000) translate(-42.675551, -45.623104) translate(27.206801, 20.849965)">
                                <g id="card-bg" transform="translate(15.468750, 24.773140) rotate(9.000000) translate(-15.468750, -24.773140) ">
                                    <use fill="#FF5555" fill-rule="evenodd" xlink:href="#path-4"></use>
                                    <rect stroke="#FFA204" stroke-width="0.54446461" x="3.91193819" y="1.90562613" width="23.1136236" height="45.7350272" rx="1.45190563"></rect>
                                </g>
                                <path d="M15.3281801,29.2196007 C17.1853303,29.2196007 20.5643382,24.979517 20.5643382,23.121672 C20.5643382,22.5337995 20.0624274,20.2693796 18.5750667,20.3277927 C17.0877059,20.3862058 15.5597426,23.121672 15.5597426,23.121672 C15.5597426,23.121672 13.5814779,20.3847598 12.259231,20.3277927 C10.9369842,20.2708255 10.5551471,22.4147379 10.5551471,23.121672 C10.5551471,24.979517 13.4710299,29.2196007 15.3281801,29.2196007 Z" id="heart" fill="#FF52F4" transform="translate(15.559743, 24.773140) rotate(8.000000) translate(-15.559743, -24.773140) "></path>
                            </g>
                        </g>
                    </g>
                </g>
            </g>
        </g>
    </g>
</svg>