<?xml version="1.0" encoding="UTF-8"?>
<svg width="201px" height="300px" viewBox="0 0 201 300" version="1.1" xmlns="http://www.w3.org/2000/svg" xmlns:xlink="http://www.w3.org/1999/xlink">
    <!-- Generator: Sketch 47.1 (45422) - http://www.bohemiancoding.com/sketch -->
    <title>magic ball</title>
    <desc>Created with Sketch.</desc>
    <defs></defs>
    <g id="Playtime" stroke="none" stroke-width="1" fill="none" fill-rule="evenodd">
        <g id="Home-1440" transform="translate(-620.000000, -2883.000000)">
            <g id="Future" transform="translate(0.000000, 2700.000000)">
                <g id="wrapper" transform="translate(420.000000, 183.000000)">
                    <g id="magic-ball" transform="translate(200.000000, 0.000000)">
                        <polygon id="star" fill="#FFA204" transform="translate(106.817287, 83.188664) rotate(-180.000000) translate(-106.817287, -83.188664) " points="102.97968 78.8169835 106.724249 80.4955874 110.549437 78.3783784 109.684315 81.9877048 113.180029 83.7848995 109.161087 84.4704181 107.536528 87.9989488 104.916098 84.3316849 100.454545 83.9109589 103.887481 81.9399516"></polygon>
                        <path d="M99.9234717,87.7262228 C164.288199,87.7262228 166.52532,13.6559136 166.52532,1.75538641 C166.52532,-10.1451408 166.497433,42.3606468 102.132706,42.3606468 C37.7679784,42.3606468 35.0579622,1.75538641 35.0579622,1.75538641 C35.0579622,1.75538641 35.5587445,87.7262228 99.9234717,87.7262228 Z" id="moon" fill="#FF5555" transform="translate(100.791641, 43.863111) rotate(-180.000000) translate(-100.791641, -43.863111) "></path>
                        <polygon id="base" fill="#5D5CF4" opacity="0.5" points="100.371593 232.432432 173.026002 232.432432 200.743187 300 0 300 27.1476769 232.432432"></polygon>
                        <ellipse id="crystal" fill="#5D5CF4" cx="100.791641" cy="190.878378" rx="83.9368517" ry="84.1216216"></ellipse>
                    </g>
                </g>
            </g>
        </g>
    </g>
</svg>