<?xml version="1.0" standalone="no"?>
<!DOCTYPE svg PUBLIC "-//W3C//DTD SVG 20010904//EN"
 "http://www.w3.org/TR/2001/REC-SVG-20010904/DTD/svg10.dtd">
<svg version="1.0" xmlns="http://www.w3.org/2000/svg"
 width="310.000000pt" height="310.000000pt" viewBox="0 0 310.000000 310.000000"
 preserveAspectRatio="xMidYMid meet">
<metadata>
Created by potrace 1.11, written by Peter Selinger 2001-2013
</metadata>
<g transform="translate(0.000000,310.000000) scale(0.100000,-0.100000)"
fill="#000000" stroke="none">
<path d="M1507 2964 c-1 -1 -35 -4 -75 -8 -329 -27 -651 -211 -863 -491 -213
-281 -288 -637 -213 -1002 16 -81 65 -216 104 -292 13 -24 24 -53 24 -66 1
-12 15 -33 30 -47 21 -17 29 -34 29 -56 0 -18 5 -29 10 -25 6 3 7 2 4 -3 -3
-6 3 -15 14 -22 21 -14 25 -3 6 18 -10 12 -9 12 6 0 10 -7 15 -20 12 -28 -3
-10 0 -12 10 -8 8 3 14 0 12 -7 -1 -7 3 -11 9 -10 8 1 10 -6 6 -19 -3 -14 -1
-19 6 -14 7 4 12 2 12 -4 0 -6 4 -8 10 -5 6 4 7 -1 3 -11 -5 -13 -3 -15 7 -9
9 6 11 4 5 -5 -6 -9 -4 -12 7 -8 8 4 20 -2 27 -13 7 -12 17 -17 24 -13 7 4 4
-2 -5 -13 -22 -24 -23 -33 -3 -33 8 0 14 3 14 8 -4 26 6 22 41 -17 22 -24 37
-48 34 -52 -9 -15 23 -21 45 -9 18 9 23 7 40 -20 12 -21 21 -27 24 -18 4 9 6
9 6 1 1 -7 8 -10 19 -6 9 3 14 3 10 -1 -3 -4 -14 -9 -25 -10 -10 -2 -19 -11
-21 -22 -3 -16 -1 -17 7 -4 9 13 11 13 12 -2 3 -35 4 -39 15 -46 12 -7 11 -36
-1 -65 -5 -13 -3 -16 9 -11 8 3 14 11 13 17 -1 7 8 11 20 10 16 -2 21 2 17 12
-3 8 -11 13 -17 12 -7 -1 -11 8 -10 20 2 17 -1 21 -15 17 -13 -5 -14 -4 -4 4
11 7 10 10 -3 16 -25 9 -12 30 21 33 19 1 24 -1 15 -6 -16 -10 -3 -20 21 -16
12 2 15 -2 10 -13 -5 -15 -4 -16 14 -2 18 14 18 14 5 -2 -8 -11 -9 -18 -3 -18
6 0 14 5 17 10 5 8 11 8 19 1 7 -6 17 -7 21 -3 5 4 4 1 0 -7 -6 -11 -4 -13 9
-8 10 4 15 3 11 -3 -3 -6 -2 -10 4 -10 5 0 12 5 14 10 3 6 4 5 3 -2 -2 -7 -13
-12 -24 -11 -15 2 -20 -2 -16 -12 4 -8 10 -12 15 -9 5 3 9 2 8 -3 -5 -26 4
-23 21 7 11 19 19 29 20 22 0 -7 5 -10 12 -6 7 4 8 3 4 -5 -4 -6 -12 -9 -17
-6 -5 4 -9 2 -9 -3 0 -6 7 -13 16 -16 22 -8 24 -8 22 6 -3 14 22 18 39 5 7 -5
17 -6 23 -2 6 4 10 3 9 -2 -4 -20 2 -27 12 -13 8 11 12 12 16 2 2 -6 9 -10 14
-7 5 4 6 -2 2 -12 -6 -17 -6 -17 14 0 23 20 37 10 26 -20 -6 -16 -5 -16 10 -4
9 7 14 17 11 22 -7 13 19 7 29 -6 4 -6 11 -4 17 5 6 9 10 10 10 3 0 -7 -8 -17
-17 -22 -14 -8 -15 -10 -3 -11 13 0 13 -1 0 -11 -12 -8 -11 -10 5 -7 11 2 21
9 21 16 1 6 2 15 3 20 0 4 16 7 35 7 19 0 32 -4 28 -9 -3 -5 3 -6 14 -2 34 13
39 11 36 -13 -2 -20 0 -22 13 -11 8 7 12 16 9 21 -3 5 -2 9 3 10 54 6 70 4 67
-6 -3 -6 2 -12 11 -12 9 0 14 5 12 12 -3 6 5 12 16 13 13 0 17 -2 10 -6 -9 -6
-6 -11 8 -20 18 -11 19 -10 15 11 -3 17 1 23 14 23 10 0 16 -4 14 -8 -8 -13 6
-9 21 6 8 7 25 12 39 11 14 -2 26 1 26 5 0 5 12 7 26 4 17 -3 23 -1 19 7 -6 8
-2 8 13 0 27 -14 35 -14 26 1 -5 7 -3 8 6 3 10 -6 12 -4 7 8 -5 12 0 15 24 12
21 -3 28 -1 23 8 -4 7 -4 9 1 5 4 -4 14 -3 22 3 7 6 13 8 13 4 0 -4 7 -1 16 6
18 15 39 21 71 21 12 0 20 5 19 12 -2 6 -1 7 2 3 2 -5 11 1 18 12 9 13 21 18
31 14 12 -5 14 -3 8 8 -4 8 -5 11 0 7 4 -4 16 -1 27 6 11 8 29 11 41 9 22 -5
22 -5 2 10 -20 16 -19 16 4 10 16 -4 22 -3 17 5 -3 6 3 13 14 17 12 4 17 11
13 18 -4 7 5 4 20 -6 31 -20 35 -13 10 16 -10 11 -13 17 -7 14 7 -4 17 0 24 8
11 14 14 13 26 -4 8 -10 16 -30 18 -43 3 -12 5 -24 5 -26 1 -1 7 3 15 10 11
11 11 15 -3 25 -15 12 -14 14 4 29 20 15 20 16 -2 12 -12 -2 -22 1 -22 6 1 5
-4 12 -10 15 -6 4 -1 12 12 20 21 13 21 13 7 -4 -14 -17 -13 -18 5 -10 11 4
30 8 42 8 14 -1 20 4 16 12 -2 8 -13 12 -24 10 -11 -2 -17 0 -14 6 4 5 11 6
17 3 8 -5 9 -1 5 10 -5 14 -3 15 13 6 29 -16 35 -12 14 11 -13 14 -14 20 -4
17 8 -2 14 3 15 11 0 8 7 16 15 18 13 4 13 3 0 -7 -13 -9 -12 -11 5 -8 14 2
20 11 20 29 -1 27 3 29 62 30 28 1 30 3 20 20 -7 11 -13 15 -15 9 -5 -14 -19
-12 -25 4 -4 9 2 12 19 10 27 -3 28 -1 13 28 -8 15 -8 19 0 14 9 -6 14 3 13
24 0 3 6 11 14 18 16 14 18 4 4 -18 -5 -9 -5 -19 2 -27 7 -9 7 -17 -1 -27 -9
-10 -8 -16 3 -25 13 -11 14 -2 12 61 -2 66 0 80 32 143 57 114 97 246 118 385
9 60 11 232 2 305 -63 560 -528 1024 -1083 1081 -52 5 -184 11 -188 8z m-649
-2250 c2 -1 -5 -5 -15 -8 -9 -4 -14 -4 -10 0 4 4 1 14 -6 23 -11 14 -10 15 8
1 11 -8 21 -15 23 -16z"/>
<path d="M463 1086 c3 -7 0 -19 -6 -25 -8 -8 -8 -14 -1 -21 16 -16 40 16 25
33 -6 8 -8 17 -4 20 3 4 1 7 -6 7 -7 0 -11 -6 -8 -14z"/>
<path d="M486 1041 c-10 -11 -25 -17 -34 -14 -10 4 -13 2 -8 -5 4 -7 4 -12 -1
-12 -13 0 -32 -50 -26 -67 5 -12 3 -14 -7 -8 -9 5 -11 4 -6 -3 4 -7 2 -12 -4
-12 -6 0 -8 -4 -5 -10 3 -5 1 -10 -5 -10 -7 0 -10 -6 -7 -12 2 -7 -4 -25 -15
-40 -10 -15 -18 -30 -17 -35 1 -4 -8 -30 -20 -58 -13 -27 -24 -54 -25 -60 -4
-12 -17 -47 -24 -59 -3 -5 1 -6 9 -2 8 4 5 0 -5 -8 -16 -13 -17 -16 -4 -16 21
0 42 26 28 35 -5 3 -10 12 -9 18 0 8 2 8 6 -1 4 -10 8 -10 19 -1 8 6 14 16 14
21 0 7 -5 6 -13 -1 -10 -8 -14 -7 -14 4 0 8 5 11 10 8 6 -4 8 1 4 11 -5 11 -3
15 5 10 8 -5 9 -2 5 9 -3 9 -2 19 4 22 5 4 6 11 3 17 -4 7 -2 8 4 4 8 -5 10
-1 6 11 -3 10 2 7 11 -7 9 -14 14 -18 11 -9 -2 9 1 22 7 29 9 10 9 12 -4 7 -9
-3 -16 0 -16 9 0 7 5 10 10 7 6 -4 8 1 4 11 -5 11 -3 15 5 10 8 -5 9 -2 5 9
-3 9 -1 19 5 23 6 4 8 3 4 -4 -3 -6 -2 -13 4 -17 14 -9 13 18 -2 33 -9 9 -9
12 0 12 7 0 12 5 12 11 0 7 8 17 17 24 14 11 15 16 5 28 -8 9 -9 18 -3 21 5 4
12 2 16 -4 3 -5 11 -10 17 -10 6 0 3 10 -8 22 -19 22 -19 22 0 8 18 -14 19
-13 13 2 -3 10 -1 20 5 24 7 5 8 2 3 -6 -5 -9 -4 -11 4 -6 6 4 9 11 6 16 -3 4
2 10 10 14 8 3 17 0 21 -6 4 -6 3 -8 -3 -5 -6 4 -14 0 -17 -9 -4 -12 -1 -14
14 -9 12 4 20 2 20 -5 0 -6 -3 -9 -7 -7 -5 3 -9 -6 -9 -19 -1 -13 3 -22 8 -21
16 3 17 -29 3 -56 -12 -23 -11 -24 11 -24 20 0 22 2 13 13 -8 10 -9 18 0 27 6
8 8 17 4 20 -3 4 -1 7 5 7 7 0 13 -4 13 -10 1 -5 3 -14 4 -20 1 -5 3 -13 4
-17 1 -5 5 -2 10 6 6 9 11 10 15 2 4 -6 2 -11 -3 -11 -6 0 -11 -5 -11 -11 0
-5 4 -7 10 -4 6 4 7 -1 3 -12 -6 -16 -5 -17 13 -3 18 14 18 14 4 -4 -14 -18
-13 -19 2 -13 17 6 43 -15 31 -27 -4 -3 4 -5 17 -4 20 3 23 -1 24 -35 1 -22 7
-42 16 -47 8 -5 11 -10 6 -10 -12 0 14 -30 26 -30 6 0 5 6 -2 15 -6 8 -8 19
-4 26 4 7 -3 19 -17 29 -19 15 -21 21 -11 33 14 17 3 30 -35 41 -13 4 -23 13
-23 21 0 8 -9 17 -20 20 -11 4 -17 11 -14 17 7 11 -43 57 -63 58 -14 0 -14 0
-18 49 -2 18 -9 39 -17 47 -12 13 -17 12 -32 -5z"/>
<path d="M2640 1024 c13 -33 13 -37 -2 -28 -7 4 -8 3 -4 -5 4 -6 11 -9 15 -7
4 3 6 -16 5 -41 -2 -34 0 -43 9 -34 6 6 15 11 20 11 5 0 -1 -9 -14 -20 -13
-10 -19 -19 -14 -20 6 0 17 6 25 13 11 9 11 8 0 -7 -14 -18 -13 -19 2 -13 19
7 34 -8 18 -18 -7 -4 -4 -13 8 -23 10 -9 13 -14 7 -10 -7 4 -15 5 -18 1 -4 -3
-7 -1 -7 5 0 7 -4 12 -9 12 -6 0 -9 -9 -8 -20 1 -14 6 -18 18 -15 9 3 24 -2
33 -11 13 -13 14 -19 4 -31 -10 -12 -9 -14 8 -11 15 2 18 -2 17 -19 -2 -13 2
-23 7 -23 6 0 10 6 10 12 0 21 -43 118 -52 118 -5 0 -6 4 -3 10 3 5 0 20 -7
32 -6 13 -13 32 -15 42 -2 11 -9 26 -16 34 -6 8 -12 20 -12 26 -1 16 -24 66
-30 66 -2 0 0 -12 5 -26z"/>
<path d="M2590 1020 c0 -5 5 -10 10 -10 6 0 10 5 10 10 0 6 -4 10 -10 10 -5 0
-10 -4 -10 -10z"/>
<path d="M485 990 c3 -6 1 -10 -5 -10 -6 0 -9 -4 -5 -9 10 -16 -15 -23 -33 -9
-15 12 -16 11 -4 -4 11 -14 10 -21 -8 -46 -27 -37 -16 -66 27 -68 22 -1 29 3
29 17 0 10 -7 21 -14 24 -10 4 -12 0 -8 -12 4 -10 4 -14 0 -10 -4 4 -14 1 -23
-6 -14 -10 -14 -10 -4 4 7 9 10 19 6 22 -3 4 -1 7 5 7 7 0 12 4 12 10 0 5 -8
6 -17 3 -16 -6 -16 -5 1 12 10 11 30 20 43 21 17 1 21 -2 13 -10 -17 -17 -11
-27 8 -15 20 13 26 39 8 36 -6 -1 -10 8 -9 20 1 11 -4 24 -13 27 -8 3 -12 2
-9 -4z m9 -38 c3 -5 -1 -9 -9 -9 -8 0 -12 4 -9 9 3 4 7 8 9 8 2 0 6 -4 9 -8z"/>
<path d="M2590 982 c0 -6 5 -14 10 -17 19 -12 0 -25 -30 -21 -17 2 -30 -1 -30
-6 0 -5 -5 -6 -12 -2 -7 4 -8 3 -4 -4 4 -7 2 -12 -5 -12 -7 0 -10 -3 -7 -6 4
-3 16 0 28 6 18 9 24 9 30 0 6 -9 9 -9 14 1 3 8 4 5 1 -6 -4 -16 0 -21 15 -21
11 0 20 4 20 8 0 4 -4 8 -8 8 -5 0 -9 7 -9 15 0 8 3 12 7 10 13 -8 8 34 -6 46
-9 7 -14 8 -14 1z"/>
<path d="M2628 957 c-8 -24 -2 -92 8 -90 6 1 11 -4 11 -12 0 -8 -4 -12 -9 -9
-4 3 -8 0 -8 -5 0 -6 2 -11 5 -11 10 0 65 30 65 36 0 3 -4 2 -10 -1 -5 -3 -22
1 -37 9 -16 8 -22 15 -14 16 11 0 11 3 1 15 -10 12 -10 15 0 15 10 0 10 3 1
14 -9 11 -9 15 1 18 8 3 9 6 1 11 -6 4 -13 1 -15 -6z"/>
<path d="M460 919 c0 -13 32 -40 43 -36 6 2 13 10 16 18 3 12 2 12 -11 1 -17
-13 -35 -1 -24 16 3 5 -1 9 -9 9 -8 0 -15 -4 -15 -8z"/>
<path d="M555 910 c-4 -6 -2 -17 4 -24 7 -9 7 -16 -1 -24 -9 -9 -9 -12 -1 -12
6 0 14 6 16 13 4 9 6 9 6 0 2 -21 -22 -26 -36 -8 -9 13 -13 15 -13 5 0 -11 -3
-11 -12 -2 -15 15 -28 15 -28 1 0 -5 4 -8 9 -5 5 4 11 1 13 -6 2 -6 11 -12 20
-14 8 -1 26 -5 38 -9 15 -5 20 -4 16 4 -5 7 -1 8 9 4 12 -4 13 -8 5 -13 -8 -5
-7 -9 5 -14 23 -8 27 -8 20 3 -3 5 0 13 7 17 7 4 10 4 6 -1 -4 -4 -2 -15 5
-23 9 -13 9 -14 0 -8 -9 5 -13 1 -13 -12 0 -10 6 -19 13 -19 6 0 21 -4 32 -8
11 -4 16 -3 10 2 -5 4 -10 15 -10 23 0 8 5 18 10 23 6 4 -1 6 -15 5 -16 -2
-25 2 -25 11 0 8 -10 15 -22 16 -13 1 -24 4 -26 6 -9 13 -30 65 -29 72 3 11
-6 9 -13 -3z"/>
<path d="M2527 904 c-15 -8 -27 -19 -27 -25 0 -6 -4 -7 -10 -4 -14 9 -32 -4
-24 -17 4 -6 10 -5 15 3 7 11 9 9 10 -6 1 -11 1 -25 0 -32 -1 -9 5 -9 25 2 39
20 69 4 43 -22 -7 -7 -3 -10 15 -10 21 0 24 2 15 13 -9 11 -8 18 2 31 12 14
12 16 -2 11 -9 -3 -22 -2 -30 2 -8 5 -19 5 -26 -1 -14 -12 -33 -4 -32 14 0 9
2 9 6 0 2 -7 9 -13 14 -13 11 0 7 22 -6 33 -5 5 1 5 14 2 15 -5 21 -3 17 3 -3
6 -2 13 3 17 6 3 8 -5 5 -20 -2 -14 -1 -25 4 -25 10 0 14 48 4 54 -4 2 -19 -2
-35 -10z"/>
<path d="M2585 882 c-13 -9 -18 -35 -5 -27 17 11 32 -5 19 -21 -9 -11 -9 -17
0 -28 15 -17 4 -25 -29 -21 -34 3 -34 3 -21 19 7 8 8 17 3 19 -4 3 -13 -3 -20
-14 -10 -15 -10 -19 0 -19 7 0 5 -5 -5 -11 -9 -6 -15 -14 -12 -20 4 -5 1 -9
-4 -9 -6 0 -11 -4 -11 -8 0 -4 9 -8 20 -8 14 0 18 5 15 17 -3 10 -1 20 4 24 7
4 8 -1 5 -12 -4 -11 -2 -14 3 -7 9 12 54 14 47 2 -3 -4 0 -8 6 -8 7 0 9 7 6
16 -3 8 -2 12 3 9 6 -3 8 9 6 27 -3 23 -2 29 5 18 7 -11 8 -9 6 10 -7 51 -20
68 -41 52z m26 -19 c13 -16 12 -17 -3 -4 -17 13 -22 21 -14 21 2 0 10 -8 17
-17z"/>
<path d="M402 832 c-15 -5 -16 -32 -1 -32 5 0 8 4 4 9 -3 5 0 13 6 17 7 4 9 3
6 -3 -4 -7 3 -10 17 -9 13 0 22 4 19 9 -2 4 1 7 6 7 14 0 14 -17 1 -25 -5 -3
-10 -14 -10 -23 1 -15 2 -15 11 1 6 9 15 14 21 11 8 -5 9 -1 5 10 -4 10 -3 15
3 11 6 -3 10 0 10 7 0 10 3 9 11 -2 9 -13 10 -13 6 0 -2 10 -18 15 -53 16 -27
0 -55 -1 -62 -4z"/>
<path d="M2452 814 c10 -21 42 -30 35 -10 -3 6 -11 10 -18 8 -9 -1 -7 3 4 12
17 13 16 14 -6 12 -21 -1 -23 -4 -15 -22z"/>
<path d="M530 814 c0 -10 -6 -14 -14 -11 -9 4 -17 -1 -21 -12 -8 -27 -43 -33
-55 -10 -8 14 -7 19 1 19 7 0 10 3 7 6 -12 11 -66 -25 -64 -43 0 -10 -6 -18
-16 -18 -10 0 -17 -4 -15 -10 1 -5 9 -9 17 -7 8 2 23 4 32 5 10 1 20 8 23 15
3 9 0 12 -8 9 -8 -3 -14 1 -14 9 0 7 4 11 9 8 4 -3 8 1 8 8 1 7 9 -5 19 -26
24 -51 14 -85 -16 -55 -7 7 -10 3 -10 -15 0 -20 3 -24 12 -16 7 6 20 7 29 4 9
-4 16 -3 15 2 -3 20 2 34 12 34 6 0 7 -5 2 -12 -13 -22 -13 -45 1 -45 21 0 14
54 -9 71 -16 12 -18 17 -7 27 6 7 12 9 12 4 1 -6 7 1 16 15 12 20 14 21 9 4
-4 -14 -1 -21 9 -21 9 0 14 7 13 16 -1 9 3 17 8 18 6 1 9 -7 8 -17 -2 -13 2
-17 12 -14 8 4 12 11 9 16 -4 6 3 5 15 -1 22 -12 41 -7 41 9 0 5 -13 16 -30
25 -37 19 -54 19 -20 0 14 -8 19 -14 13 -15 -7 0 -22 9 -33 20 -17 17 -20 17
-20 4z"/>
<path d="M2641 816 c-7 -8 -14 -23 -16 -35 -6 -32 -16 -43 -32 -37 -11 5 -13
2 -9 -10 4 -9 1 -23 -5 -30 -7 -8 -7 -14 -1 -14 5 0 15 7 22 15 7 8 9 15 5 15
-4 0 4 11 18 24 20 18 23 26 14 36 -9 10 -9 11 2 5 9 -5 12 -4 7 3 -3 6 1 15
10 20 10 5 12 12 6 16 -5 3 -15 0 -21 -8z"/>
<path d="M2500 801 c-10 -19 -24 -20 -68 -7 -24 8 -50 -9 -28 -17 10 -4 13
-13 9 -24 -6 -16 -5 -16 10 -4 14 11 20 11 34 0 15 -12 16 -12 10 3 -3 10 -1
20 5 24 7 4 8 3 4 -4 -4 -7 -2 -12 5 -12 8 0 9 -3 0 -14 -9 -10 -7 -17 6 -27
15 -12 16 -12 10 5 -5 11 -1 28 8 42 9 13 13 24 9 24 -4 0 -1 7 6 15 8 10 9
15 2 15 -6 0 -16 -9 -22 -19z m-60 -21 c8 -5 11 -10 5 -10 -5 0 -17 5 -25 10
-8 5 -10 10 -5 10 6 0 17 -5 25 -10z"/>
<path d="M2653 768 c0 -23 2 -25 18 -15 11 7 14 14 8 18 -6 4 -4 9 7 13 9 3
19 4 22 1 3 -3 0 -5 -6 -5 -7 0 -11 -6 -9 -12 3 -15 23 -38 33 -38 5 0 3 5 -4
12 -8 8 -8 15 -1 24 13 15 -6 29 -41 29 -21 0 -26 -5 -27 -27z"/>
<path d="M744 751 c1 -29 6 -45 19 -52 12 -7 17 -7 17 1 0 6 5 8 11 5 11 -7
-17 -34 -36 -35 -5 0 -3 5 5 11 12 8 10 9 -7 4 -17 -4 -27 1 -44 24 -13 17
-32 34 -43 38 -30 10 -88 11 -106 2 -10 -5 -7 -7 10 -6 14 0 34 -4 44 -8 15
-7 17 -5 11 6 -7 11 -5 11 10 -1 15 -12 17 -12 10 -1 -5 10 -4 12 4 7 6 -4 8
-12 5 -18 -4 -6 2 -8 17 -3 19 5 21 4 9 -4 -15 -10 -13 -12 13 -15 6 -1 11
-10 9 -20 -2 -11 1 -15 8 -11 6 4 20 -1 31 -11 18 -17 20 -16 46 7 18 16 22
17 13 5 -14 -18 -13 -19 3 -13 11 4 16 3 12 -3 -3 -6 -1 -10 4 -10 15 0 14 12
-3 35 -7 11 -14 24 -14 28 -1 4 -14 24 -30 44 l-28 36 0 -42z m56 -36 c0 -2
-50 -2 -50 0 0 2 3 10 6 18 5 14 8 13 25 -1 10 -9 19 -17 19 -17z"/>
<path d="M2327 754 c-4 -4 -2 -13 4 -20 7 -9 7 -19 0 -32 -7 -13 -7 -22 1 -30
8 -8 7 -16 -3 -28 -12 -16 -12 -17 2 -12 9 4 22 1 28 -5 6 -6 11 -7 11 -1 0 6
-4 14 -9 20 -13 12 -22 66 -11 59 5 -3 11 -1 15 5 3 5 2 10 -3 10 -6 0 -9 7
-8 16 1 18 -16 29 -27 18z"/>
<path d="M2554 742 c-4 -16 -12 -21 -24 -17 -11 4 -20 -1 -24 -11 -6 -15 -10
-14 -36 11 -23 22 -32 26 -43 17 -10 -9 -16 -9 -25 0 -9 9 -12 9 -12 0 0 -7 6
-13 13 -13 6 -1 19 -3 27 -4 8 0 23 -5 33 -9 17 -8 17 -9 0 -23 -17 -14 -17
-14 0 -9 11 3 16 2 12 -4 -3 -6 -1 -10 5 -10 7 0 10 6 7 14 -4 10 0 13 14 11
11 -2 17 0 15 4 -3 5 8 7 24 5 35 -4 43 6 31 38 l-10 23 -7 -23z m16 -22 c0
-5 -5 -10 -11 -10 -5 0 -7 5 -4 10 3 6 8 10 11 10 2 0 4 -4 4 -10z"/>
<path d="M426 733 c-8 -19 8 -40 18 -24 4 6 3 11 -3 11 -6 0 -8 7 -5 15 4 8 4
15 1 15 -3 0 -8 -8 -11 -17z"/>
<path d="M470 741 c0 -5 9 -12 20 -16 16 -5 19 -13 16 -49 -3 -32 -1 -43 10
-43 17 0 17 3 4 28 -8 13 -8 24 0 37 10 15 10 15 5 -3 -4 -17 0 -21 22 -23 26
-2 26 -1 7 12 -15 12 -16 17 -7 27 10 10 16 9 29 -2 16 -12 17 -12 11 4 -6 15
-4 16 13 7 11 -6 20 -15 20 -20 0 -17 -21 -22 -37 -8 -15 11 -16 11 -10 -4 4
-11 0 -21 -11 -27 -27 -16 3 -13 34 3 15 8 32 12 37 9 6 -4 8 0 4 10 -3 9 -1
19 5 23 7 4 8 3 4 -5 -5 -7 -2 -10 6 -9 8 2 12 -5 11 -17 -1 -14 4 -21 17 -22
11 -1 20 2 20 8 0 5 -5 9 -11 9 -8 0 -7 5 1 16 8 8 9 14 4 12 -5 -1 -20 4 -34
12 -27 15 -51 21 -90 21 -14 1 -29 6 -33 12 -6 8 -7 6 -4 -5 6 -17 -19 -19
-31 -2 -10 13 -32 16 -32 5z"/>
<path d="M2614 717 c-13 -21 -27 -31 -40 -29 -30 5 -38 5 -54 1 -17 -4 -30
-19 -30 -34 0 -5 5 -3 11 5 8 11 9 9 3 -10 -6 -22 -5 -24 10 -11 10 8 14 21
11 30 -5 13 -4 13 6 4 10 -10 9 -16 -2 -29 -12 -16 -12 -17 2 -12 9 3 22 2 30
-2 8 -5 19 -4 26 2 9 7 18 7 30 -3 15 -12 16 -12 11 2 -4 9 -1 22 5 28 15 15
5 14 -28 -3 -38 -20 -78 -1 -43 20 6 4 8 3 4 -4 -3 -6 -2 -13 3 -16 5 -3 12 1
15 10 3 9 13 14 20 11 8 -3 17 1 20 9 4 10 2 13 -7 8 -7 -4 -9 -3 -4 2 5 5 13
10 18 10 22 3 23 5 9 15 -12 9 -12 10 4 5 10 -4 26 -1 35 6 14 12 14 11 3 -4
-12 -14 -11 -17 5 -17 40 -1 52 -5 46 -14 -4 -6 -1 -7 7 -2 8 5 11 4 7 -3 -4
-5 -4 -18 -1 -27 5 -13 8 -14 15 -3 12 19 11 30 -3 22 -6 -4 -8 -3 -4 4 3 6 2
14 -4 17 -6 4 -8 16 -4 28 6 22 6 22 -9 2 -15 -19 -16 -19 -36 -1 -16 14 -24
16 -34 8 -8 -7 -17 -8 -23 -3 -5 6 -17 -4 -30 -22z"/>
<path d="M368 717 c-30 -12 -37 -27 -14 -27 8 0 16 6 19 13 2 7 8 8 13 3 5 -5
3 -11 -5 -14 -11 -4 -11 -6 0 -14 10 -7 8 -8 -7 -4 -20 6 -50 -15 -55 -39 -5
-22 -23 -43 -35 -38 -14 5 -38 -33 -29 -47 3 -6 2 -10 -4 -10 -8 0 -20 -23
-27 -52 -1 -5 -3 -11 -4 -15 -1 -5 -2 -11 -1 -15 0 -5 -4 -8 -10 -8 -5 0 -7
-5 -3 -11 3 -6 3 -14 -2 -18 -15 -10 -35 -62 -29 -72 4 -5 2 -9 -3 -9 -15 0
-23 -28 -10 -36 7 -4 8 -3 4 4 -5 8 -1 10 11 6 15 -5 16 -4 3 6 -13 9 -12 10
5 6 16 -5 21 -1 22 14 1 11 -1 19 -5 17 -8 -2 -12 7 -12 26 0 8 4 7 11 -3 8
-12 9 -10 4 7 -3 12 -1 24 4 27 16 10 23 -12 11 -34 -7 -13 -7 -20 -1 -20 6 0
15 9 21 20 6 11 7 20 3 20 -4 0 3 7 16 17 30 21 92 21 122 0 13 -10 20 -17 15
-17 -5 0 -3 -7 4 -15 7 -8 17 -15 22 -15 6 0 5 6 -2 15 -12 15 -5 39 10 30 4
-3 11 2 14 11 5 12 2 15 -11 9 -34 -14 -48 -11 -45 9 3 17 1 18 -12 7 -17 -14
-40 -5 -33 13 3 8 -5 13 -23 13 -19 0 -27 -5 -26 -16 1 -11 -6 -15 -21 -14
-14 2 -22 -2 -20 -10 3 -16 -25 -16 -30 1 -3 6 2 12 11 12 9 0 16 5 16 11 0 6
-7 8 -17 4 -14 -5 -15 -4 -6 6 10 10 15 10 27 0 12 -10 15 -9 13 8 -1 16 -6
20 -22 15 -14 -4 -16 -3 -7 4 8 5 14 13 13 18 0 5 9 8 20 7 21 -3 22 16 0 33
-12 9 -12 12 0 20 22 13 40 14 32 1 -4 -7 1 -6 10 2 19 15 23 36 5 25 -7 -4
-8 -3 -4 5 4 6 11 9 16 6 4 -3 10 2 13 9 3 8 1 16 -5 18 -6 2 -3 10 6 17 14
12 16 12 10 -3 -3 -9 -1 -16 5 -16 6 0 11 4 11 8 0 5 7 9 15 9 8 0 12 -3 10
-7 -7 -11 29 -8 45 4 13 10 13 9 1 -7 -13 -16 -13 -19 0 -17 25 4 40 0 35 -8
-3 -5 1 -9 9 -9 8 0 15 4 15 9 0 4 -5 8 -11 8 -5 0 -7 6 -3 13 4 6 3 9 -1 4
-5 -4 -17 0 -27 9 -14 13 -21 14 -32 5 -19 -16 -26 -2 -21 37 4 35 3 35 -37
19z"/>
<path d="M2278 705 c-7 -9 -20 -25 -30 -35 -9 -10 -16 -20 -15 -22 1 -2 -4 3
-10 11 -9 10 -13 11 -13 3 0 -7 -5 -11 -11 -9 -6 1 -13 -3 -16 -9 -2 -6 3 -11
12 -11 8 0 15 5 15 11 0 6 5 4 10 -4 5 -8 7 -23 4 -32 -4 -13 -1 -16 10 -12 9
3 13 11 9 17 -4 6 -1 7 7 2 9 -5 10 -2 6 11 -3 11 -1 26 5 34 8 12 9 9 4 -10
l-6 -25 15 25 c18 30 20 44 4 34 -7 -4 -8 -3 -4 5 4 6 12 8 18 5 7 -4 8 -2 4
4 -4 7 -2 12 4 12 7 0 9 -7 6 -16 -4 -9 -1 -22 4 -30 9 -9 6 -16 -12 -25 -35
-18 -54 -55 -23 -43 8 4 12 11 9 16 -4 6 1 6 13 -1 11 -6 23 -7 27 -4 3 3 6 0
6 -8 0 -12 2 -11 11 1 8 12 9 11 5 -5 -5 -16 -1 -21 14 -21 11 0 20 4 20 8 0
4 -5 8 -11 8 -5 0 -7 5 -4 10 8 13 18 13 40 -4 16 -11 17 -17 7 -29 -10 -12
-8 -14 12 -14 22 0 23 1 10 25 -7 14 -10 30 -7 35 4 6 0 8 -9 4 -9 -3 -20 -1
-26 5 -6 6 -12 6 -17 -2 -5 -8 -10 -8 -21 1 -11 9 -14 9 -14 -1 0 -10 -3 -10
-15 0 -11 9 -12 16 -4 26 6 7 7 19 3 26 -5 7 -9 19 -9 27 0 21 -21 24 -37 6z"/>
<path d="M2412 704 c-23 -16 -29 -34 -11 -34 5 0 7 4 4 10 -3 6 1 7 10 4 10
-4 15 -2 13 6 -2 7 4 15 12 17 13 4 13 3 0 -7 -10 -8 -11 -10 -2 -8 15 4 18
21 5 25 -5 2 -18 -4 -31 -13z"/>
<path d="M550 699 c0 -5 5 -7 10 -4 6 3 10 8 10 11 0 2 -4 4 -10 4 -5 0 -10
-5 -10 -11z"/>
<path d="M595 700 c-3 -5 -1 -10 4 -10 6 0 11 5 11 10 0 6 -2 10 -4 10 -3 0
-8 -4 -11 -10z"/>
<path d="M2640 695 c-8 -10 -8 -15 0 -20 8 -5 8 -11 -1 -21 -9 -11 -9 -14 1
-14 10 0 10 -3 0 -15 -10 -12 -16 -13 -26 -4 -10 8 -18 8 -27 1 -7 -6 -18 -7
-26 -3 -7 5 -23 7 -36 5 -16 -1 -29 6 -40 22 -9 14 -21 22 -27 18 -7 -4 -5
-10 6 -16 9 -5 14 -13 11 -18 -3 -5 -1 -11 5 -15 7 -4 7 -12 0 -26 -6 -11 -7
-19 -1 -19 11 0 23 29 16 39 -2 4 2 8 9 8 8 0 12 -6 9 -14 -3 -7 0 -13 7 -13
6 0 9 4 6 8 -3 5 9 8 27 7 18 -2 37 2 44 7 8 6 15 2 24 -14 18 -35 55 -54 43
-23 -4 8 -11 12 -16 9 -6 -4 -6 1 1 13 6 11 7 23 4 27 -3 3 0 6 8 6 12 0 11 2
-1 11 -12 8 -11 9 5 5 16 -5 21 -1 21 14 0 22 -12 27 -18 8 -3 -9 -6 -9 -12 0
-4 7 -2 12 4 12 6 0 8 5 4 11 -4 8 0 8 15 0 12 -7 27 -9 33 -5 7 4 8 3 4 -4
-4 -7 -1 -12 6 -12 8 0 6 -5 -4 -11 -10 -5 -18 -15 -18 -21 0 -9 3 -9 11 -1 6
6 18 9 26 6 13 -5 12 -1 -1 26 -9 17 -21 29 -26 26 -6 -4 -10 -3 -10 2 0 13
-49 12 -60 -2z"/>
<path d="M2774 694 c9 -23 -25 -76 -40 -63 -8 7 -15 6 -20 -2 -5 -8 -3 -9 6
-4 9 6 11 4 5 -4 -5 -9 -10 -10 -18 -2 -26 26 -56 -4 -37 -38 6 -13 5 -24 -6
-39 -8 -12 -11 -22 -5 -22 6 0 15 9 21 20 6 11 16 18 22 14 6 -4 8 1 4 14 -8
24 22 46 48 36 12 -5 15 -2 10 12 -3 11 -2 15 3 8 5 -7 14 -4 27 10 19 19 19
19 -2 14 -15 -4 -19 -2 -15 8 3 8 8 12 13 9 4 -2 5 7 2 20 -2 14 -9 25 -14 25
-6 0 -7 -7 -4 -16z m-81 -105 c-4 -16 -8 -17 -14 -7 -5 7 -4 14 1 16 6 2 7 9
4 14 -4 6 -2 8 4 5 5 -4 8 -16 5 -28z"/>
<path d="M855 687 c-11 -7 -20 -19 -20 -27 0 -8 -8 -15 -17 -15 -17 0 -27 -20
-10 -20 4 0 13 -4 20 -9 7 -4 16 -5 20 -1 3 3 1 9 -5 13 -7 5 -7 11 3 20 8 7
14 10 14 6 0 -3 7 -1 16 6 12 11 15 11 12 0 -2 -7 3 -15 10 -17 10 -4 10 2 -2
26 -9 17 -18 31 -19 31 -1 -1 -11 -6 -22 -13z m20 -7 c-3 -5 -12 -10 -18 -10
-7 0 -6 4 3 10 19 12 23 12 15 0z"/>
<path d="M2356 692 c-4 -7 -3 -12 3 -12 6 0 8 -6 5 -14 -9 -24 59 -52 95 -38
10 4 10 7 -2 14 -9 5 -14 15 -11 23 4 8 1 15 -5 15 -6 0 -11 -4 -11 -9 0 -16
-39 -6 -53 13 -10 13 -16 15 -21 8z m90 -55 c4 -3 -6 -5 -20 -3 -14 1 -29 5
-32 9 -3 3 6 4 20 3 15 -2 29 -6 32 -9z"/>
<path d="M646 674 c-3 -8 -10 -12 -16 -9 -5 3 -10 2 -10 -3 0 -6 -8 -9 -17 -8
-12 1 -17 -6 -16 -17 0 -10 -2 -16 -5 -13 -3 3 -11 1 -18 -5 -8 -7 -14 -6 -20
2 -4 7 -3 9 4 5 18 -11 20 8 1 26 -16 15 -17 14 -14 -18 1 -19 -3 -45 -10 -58
-12 -22 -11 -23 11 -23 20 0 22 2 12 14 -10 12 -9 18 7 29 21 15 41 13 38 -4
-1 -5 5 -13 13 -16 12 -5 15 -2 9 11 -4 10 -8 25 -9 33 0 8 -5 18 -9 21 -4 3
6 6 23 6 16 0 30 -4 30 -9 0 -5 -6 -6 -12 -2 -7 4 -10 3 -5 -1 11 -13 45 -16
52 -6 3 5 1 12 -5 16 -5 3 -10 0 -10 -7 0 -9 -3 -9 -10 2 -5 8 -7 23 -4 33 7
21 -2 23 -10 1z"/>
<path d="M698 640 c-16 -29 -45 -36 -64 -17 -11 10 -24 8 -24 -4 0 -5 4 -8 8
-5 5 3 9 -8 10 -25 1 -25 -2 -29 -16 -24 -9 4 -23 8 -29 8 -7 0 -13 4 -13 8 0
4 6 10 13 12 6 3 8 6 2 6 -5 0 -16 -3 -24 -8 -12 -8 -12 -12 -2 -25 13 -15 11
-17 -14 -20 -26 -3 -16 -21 13 -22 24 -1 30 1 23 10 -6 7 -6 17 -1 26 7 11 10
12 10 2 0 -8 5 -10 13 -6 6 4 9 4 5 -1 -8 -9 22 -65 34 -65 13 0 9 12 -8 31
-21 23 -10 39 23 33 23 -4 25 -3 13 11 -11 14 -10 19 5 33 18 16 18 16 5 -1
-11 -15 -11 -20 3 -34 14 -14 15 -13 13 20 -2 23 1 34 7 30 6 -4 7 -1 2 7 -5
8 -4 11 3 6 6 -3 13 -2 17 4 3 5 1 10 -5 10 -6 0 -8 5 -5 11 9 13 16 6 19 -18
2 -10 11 -19 22 -21 16 -3 17 -1 4 8 -13 10 -12 11 3 6 10 -3 22 -6 25 -6 4 0
0 -5 -8 -10 -9 -6 -10 -10 -3 -10 16 0 26 17 14 25 -6 3 -7 13 -4 23 6 15 5
15 -10 3 -15 -12 -20 -11 -35 3 -24 21 -24 21 -44 -14z m-50 -65 c-3 -3 -9 2
-12 12 -6 14 -5 15 5 6 7 -7 10 -15 7 -18z"/>
<path d="M2287 656 c-4 -10 -1 -13 8 -9 8 3 12 9 9 14 -7 12 -11 11 -17 -5z"/>
<path d="M2690 659 c0 -5 5 -7 10 -4 6 3 10 8 10 11 0 2 -4 4 -10 4 -5 0 -10
-5 -10 -11z"/>
<path d="M870 642 c0 -7 -4 -10 -10 -7 -5 3 -7 0 -4 -8 7 -20 -13 -32 -30 -18
-11 9 -13 6 -13 -13 0 -22 1 -23 24 -11 14 8 33 11 42 7 14 -5 14 -3 3 10 -10
13 -10 18 -1 24 7 4 9 3 5 -4 -3 -6 3 -16 15 -22 30 -16 29 -9 -3 25 -15 16
-28 24 -28 17z"/>
<path d="M356 625 c-8 -8 -17 -24 -21 -34 -7 -23 -36 -36 -45 -20 -5 7 -10 8
-14 1 -3 -5 1 -13 10 -16 8 -3 12 -11 8 -17 -4 -7 -3 -9 4 -5 5 3 12 0 15 -6
2 -7 8 -10 12 -6 4 4 2 16 -6 25 -7 10 -9 14 -4 10 5 -4 15 3 22 15 l14 23 -7
-25 c-6 -24 -5 -24 12 -8 13 13 15 20 6 31 -10 11 -9 17 3 27 12 10 15 10 15
0 0 -10 3 -10 15 0 14 11 19 7 16 -12 -2 -11 17 -10 24 1 14 23 -57 37 -79 16z"/>
<path d="M2133 622 c-9 -23 -25 -33 -45 -26 -12 3 -18 0 -18 -10 0 -9 5 -16
11 -16 5 0 7 5 3 12 -4 7 -3 8 5 4 6 -4 8 -12 5 -18 -5 -8 -1 -9 10 -5 10 4
21 7 24 7 4 0 1 4 -6 9 -11 7 -10 9 3 14 9 4 13 3 10 -2 -3 -6 2 -14 11 -19 9
-5 15 -12 15 -15 -3 -20 0 -30 6 -24 3 4 7 18 9 31 2 19 -1 24 -14 19 -13 -4
-14 -3 -4 5 11 7 11 10 -2 15 -9 4 -16 12 -15 19 0 10 2 10 6 1 5 -15 33 -18
33 -4 0 17 -41 20 -47 3z"/>
<path d="M439 606 c-9 -12 -15 -34 -14 -50 4 -31 9 -39 29 -42 7 -1 24 -5 36
-9 15 -5 20 -4 16 4 -5 7 -1 8 9 4 12 -4 13 -8 5 -13 -8 -5 -7 -9 5 -14 23 -8
25 -8 23 7 -2 6 4 12 12 12 8 0 14 -6 12 -13 -2 -9 4 -12 15 -8 10 3 25 1 33
-5 12 -8 10 -9 -7 -4 -16 4 -22 2 -20 -7 2 -7 2 -9 -1 -5 -2 4 -10 0 -18 -10
-13 -17 -15 -17 -28 0 -12 16 -14 16 -20 1 -3 -8 -6 -17 -6 -18 0 -2 18 -3 41
-3 25 0 43 5 46 13 3 8 9 12 13 9 5 -3 11 -1 15 5 4 6 13 5 26 -3 16 -10 21
-9 29 3 14 22 12 30 -5 24 -8 -4 -12 -11 -8 -17 3 -5 1 -7 -5 -4 -11 8 -5 44
9 53 5 3 9 13 9 22 0 13 -2 13 -16 -4 -8 -10 -13 -14 -10 -7 4 6 1 15 -5 19
-8 4 -9 3 -5 -4 4 -7 2 -12 -3 -12 -6 0 -11 5 -11 12 0 6 -3 8 -7 5 -3 -4 2
-16 12 -27 13 -15 15 -24 8 -31 -12 -12 -43 0 -46 17 -1 5 -18 9 -37 10 -56 2
-60 3 -60 19 0 8 -5 15 -11 15 -5 0 -8 -4 -4 -9 10 -18 -18 -24 -31 -7 -9 13
-13 14 -17 4 -3 -7 -4 -3 -4 10 1 12 5 22 9 22 4 0 8 4 8 10 0 5 -8 6 -17 3
-15 -6 -16 -5 -3 9 14 15 16 15 24 -2 15 -33 65 -37 52 -4 -3 8 -1 14 4 14 5
0 7 7 3 16 -8 22 -24 -4 -18 -31 3 -11 2 -14 -1 -7 -3 6 -10 10 -15 7 -5 -4
-6 2 -2 11 4 11 3 15 -5 10 -6 -3 -14 0 -19 8 -6 11 -11 10 -24 -8z"/>
<path d="M950 620 c0 -5 6 -10 14 -10 17 0 27 -24 20 -47 -3 -10 1 -7 9 6 12
20 15 21 20 7 5 -12 3 -15 -5 -10 -8 5 -9 2 -5 -10 4 -10 7 -20 7 -24 0 -3 6
2 13 13 14 18 43 13 32 -6 -4 -5 -1 -9 6 -9 6 0 9 8 6 19 -4 15 -1 18 11 13
14 -5 15 -4 2 10 -9 10 -19 13 -24 7 -16 -15 -34 -10 -41 11 -4 11 -10 18 -15
15 -4 -3 -13 2 -20 10 -14 17 -30 20 -30 5z"/>
<path d="M2189 618 c-1 -7 -2 -26 -3 -43 -2 -43 -11 -53 -47 -49 -27 3 -30 2
-19 -11 10 -12 16 -13 27 -4 11 10 12 9 7 -5 -9 -25 11 -19 24 7 6 12 11 16
11 10 1 -7 6 -13 12 -13 8 0 8 4 2 13 -5 6 -9 19 -8 27 5 46 5 45 13 32 6 -8
9 -2 9 17 0 27 -2 28 -14 13 -12 -16 -13 -16 -7 1 3 9 3 17 0 17 -3 0 -7 -6
-7 -12z"/>
<path d="M2790 616 c0 -16 -24 -28 -42 -21 -7 3 -19 1 -27 -4 -12 -7 -10 -14
8 -36 l21 -28 -2 27 c-2 19 -7 25 -18 21 -11 -5 -12 -3 -4 5 9 9 17 9 32 1 26
-14 33 -14 30 0 -2 6 5 13 14 14 11 2 15 -3 13 -16 -2 -10 0 -19 5 -19 5 0 7
-8 4 -17 -5 -16 -4 -16 6 -3 10 13 11 13 6 -2 -3 -10 -1 -20 5 -24 6 -4 5 -12
-3 -22 -11 -13 -11 -15 2 -10 11 4 16 0 17 -13 2 -25 -14 -34 -33 -18 -13 11
-15 10 -12 -7 3 -20 -11 -23 -45 -9 -13 6 -16 3 -11 -9 3 -9 10 -14 14 -11 15
9 22 -15 10 -30 -7 -9 -8 -15 -2 -15 5 0 15 7 22 15 7 8 9 15 4 15 -10 0 25
25 47 32 9 4 22 2 30 -4 11 -8 11 -9 -3 -5 -9 3 -19 -1 -22 -8 -4 -10 1 -14
17 -12 14 1 22 -3 22 -13 0 -8 4 -18 9 -22 15 -10 15 -36 0 -42 -7 -3 -16 0
-20 6 -4 6 -3 8 3 5 6 -4 13 0 17 8 6 17 -2 19 -23 6 -9 -6 -11 -15 -6 -27 5
-11 9 -23 9 -28 1 -5 7 -11 14 -14 7 -2 10 2 6 11 -7 20 14 33 29 18 9 -9 8
-11 -5 -6 -11 4 -18 2 -18 -5 0 -6 5 -8 10 -5 9 6 14 -8 11 -27 -1 -11 17 -10
23 1 3 4 2 11 -1 15 -4 4 -8 13 -9 21 -1 8 -9 29 -18 46 -9 18 -16 38 -16 46
0 7 -5 13 -11 13 -5 0 -8 4 -4 9 3 5 0 15 -7 23 -13 14 -20 33 -21 56 0 6 -4
12 -9 12 -4 0 -8 11 -8 25 0 14 -5 25 -11 25 -5 0 -7 5 -4 10 3 6 1 10 -4 10
-6 0 -10 3 -10 8 1 4 1 15 0 25 -1 20 -31 24 -31 3z"/>
<path d="M395 610 c-3 -5 -13 -6 -23 -3 -15 6 -15 5 -3 -10 12 -15 11 -20 -4
-37 -10 -11 -23 -17 -29 -13 -6 4 -5 0 2 -9 7 -9 26 -15 45 -14 34 2 35 5 26
74 -4 25 -5 26 -14 12z m11 -56 c2 -19 -1 -23 -8 -16 -8 8 -18 8 -32 1 -20
-10 -20 -10 -2 5 10 9 23 13 29 9 5 -3 6 4 2 18 -4 13 -4 21 0 17 4 -4 9 -19
11 -34z"/>
<path d="M713 604 c-5 -10 -9 -32 -9 -49 1 -25 5 -30 26 -30 14 0 24 -5 23
-12 -1 -6 5 -14 13 -17 12 -5 15 -2 9 11 -3 10 -7 23 -8 28 -2 11 -18 25 -30
25 -5 0 -5 -5 -1 -12 4 -7 3 -8 -4 -4 -7 4 -12 2 -12 -5 0 -7 -3 -9 -6 -6 -4
4 -1 13 6 22 8 10 9 15 1 15 -6 0 -11 4 -11 8 0 5 7 9 15 9 8 0 12 -4 9 -9 -3
-4 0 -8 5 -8 15 0 14 12 -3 35 -13 18 -14 18 -23 -1z"/>
<path d="M2442 613 c-10 -4 -9 -9 5 -20 10 -8 12 -12 6 -8 -22 11 -14 -12 10
-28 13 -9 16 -15 7 -14 -8 1 -16 -2 -18 -8 -1 -5 12 -10 29 -11 21 -1 27 2 21
8 -12 12 -5 38 9 38 5 0 8 -3 7 -7 -2 -5 6 -23 17 -40 19 -32 38 -42 49 -24 9
14 45 20 53 9 3 -6 1 -8 -4 -5 -6 4 -13 0 -17 -8 -6 -17 2 -19 24 -5 12 8 13
13 3 29 -9 15 -10 22 -1 27 7 5 8 3 3 -6 -6 -9 -4 -11 5 -5 10 6 9 11 -5 22
-11 7 -22 13 -27 13 -4 0 -7 3 -7 8 6 36 -12 37 -32 0 -9 -17 -8 -19 8 -14 10
3 25 1 33 -5 12 -8 11 -9 -6 -5 -15 5 -21 2 -21 -9 0 -10 6 -14 16 -10 13 5
13 4 4 -6 -10 -10 -16 -9 -29 2 -16 12 -17 12 -11 -3 3 -10 1 -20 -6 -24 -7
-4 -9 -4 -5 0 3 4 -3 17 -13 27 -12 12 -18 27 -14 38 7 23 -24 24 -41 2 -16
-20 -37 -5 -24 18 13 26 2 36 -28 24z"/>
<path d="M754 581 c1 -9 5 -19 10 -23 5 -3 11 -12 12 -20 2 -7 6 -24 10 -37 6
-21 5 -23 -12 -16 -10 4 -25 8 -31 8 -7 0 -13 4 -13 8 0 4 6 9 13 12 6 2 -3 4
-22 3 -21 -1 -36 -7 -39 -16 -3 -13 -2 -13 7 0 6 8 11 11 12 5 6 -44 5 -55
-10 -60 -16 -5 -24 -45 -9 -45 4 0 8 5 8 11 0 5 4 8 9 5 5 -3 14 1 21 9 10 12
10 15 0 15 -9 0 -9 4 1 17 12 14 12 16 0 8 -10 -5 -12 -4 -7 4 4 6 11 9 16 6
4 -3 11 1 13 7 4 10 6 10 6 0 1 -8 6 -10 14 -6 8 5 8 2 -2 -9 -19 -24 2 -21
24 3 20 22 30 54 14 44 -5 -3 -9 0 -9 6 0 7 8 9 20 5 15 -5 18 -3 14 9 -3 8
-9 15 -12 14 -13 -2 -42 14 -42 24 0 5 4 7 9 4 5 -3 14 0 20 7 8 11 5 14 -18
14 -20 0 -28 -5 -27 -16z"/>
<path d="M2281 591 c-7 -5 -23 -6 -35 -4 -17 4 -18 3 -6 -6 13 -9 12 -11 -5
-12 -11 -1 -23 -1 -27 0 -12 2 -3 -42 9 -46 6 -2 10 4 9 14 -1 13 5 17 22 16
13 -2 21 1 17 7 -3 5 4 14 15 20 14 8 20 8 20 0 0 -6 5 -8 12 -4 6 4 8 3 5 -4
-4 -5 -17 -8 -30 -5 -22 5 -22 5 -2 -11 13 -11 15 -14 4 -11 -9 4 -16 0 -16
-8 0 -8 11 -14 29 -14 18 0 25 4 19 10 -6 6 -5 16 2 29 10 15 9 21 -3 28 -18
12 -21 12 -39 1z"/>
<path d="M2386 571 c2 -39 3 -41 15 -41 8 0 8 4 0 14 -8 10 -9 16 -1 21 14 9
13 22 -3 28 -9 3 -12 -4 -11 -22z"/>
<path d="M2547 579 c-7 -25 2 -51 14 -43 5 3 9 10 9 15 0 6 -4 7 -10 4 -5 -3
-10 -1 -10 4 0 6 5 11 10 11 6 0 10 7 10 15 0 22 -17 18 -23 -6z"/>
<path d="M853 571 c-10 -16 -8 -18 13 -18 21 0 23 2 12 16 -7 9 -13 17 -13 18
0 1 -6 -6 -12 -16z"/>
<path d="M887 584 c-8 -9 1 -24 14 -24 6 0 7 4 4 10 -4 6 1 7 11 3 10 -4 13
-8 7 -10 -7 -3 -9 -12 -6 -21 3 -11 2 -13 -4 -6 -4 6 -19 10 -33 9 -19 -1 -25
-7 -25 -26 0 -16 7 -25 20 -27 17 -3 17 -1 5 7 -13 10 -13 11 0 12 8 0 23 2
32 4 14 3 16 0 8 -15 -13 -24 -13 -27 4 -27 11 0 13 10 10 41 -3 30 -2 37 6
26 6 -10 10 -11 10 -2 0 13 -35 52 -48 52 -5 0 -12 -3 -15 -6z m3 -58 c-7 -7
-13 -7 -20 0 -6 6 -3 10 10 10 13 0 16 -4 10 -10z"/>
<path d="M2019 573 c-6 -7 -14 -11 -18 -9 -3 2 -12 -2 -18 -10 -8 -8 -9 -15
-3 -19 6 -3 10 0 10 7 0 10 2 10 9 -1 7 -11 10 -9 16 8 3 11 11 21 16 21 6 0
8 -4 5 -9 -3 -5 2 -15 11 -22 14 -12 15 -11 9 11 -6 19 -5 21 3 10 6 -8 8 -23
5 -32 -4 -12 -1 -16 8 -13 8 3 14 15 15 25 1 11 -2 18 -7 15 -5 -3 -11 3 -14
13 -7 22 -32 24 -47 5z"/>
<path d="M2792 580 c2 -11 -4 -14 -22 -12 -17 1 -21 -1 -12 -7 8 -4 14 -12 15
-17 1 -5 8 -8 14 -8 7 1 11 -1 9 -5 -5 -11 33 -41 39 -31 4 6 2 10 -4 10 -9 0
-24 37 -26 62 0 3 -4 10 -8 15 -5 4 -7 1 -5 -7z"/>
<path d="M825 570 c-3 -5 -1 -18 5 -27 9 -15 11 -15 7 -2 -3 9 0 22 6 28 8 8
8 11 0 11 -7 0 -15 -4 -18 -10z"/>
<path d="M464 554 c3 -8 6 -18 6 -20 0 -2 4 -4 8 -4 15 0 9 29 -6 35 -10 4
-12 0 -8 -11z"/>
<path d="M795 560 c3 -5 8 -10 11 -10 2 0 4 5 4 10 0 6 -5 10 -11 10 -5 0 -7
-4 -4 -10z"/>
<path d="M2109 551 c-13 -11 -18 -20 -11 -21 6 0 12 5 12 11 0 8 4 8 14 0 16
-14 28 -1 17 17 -6 10 -14 8 -32 -7z"/>
<path d="M2335 557 c-12 -10 -14 -16 -7 -21 7 -4 12 -4 12 1 0 4 4 2 9 -6 5
-8 16 -16 24 -17 8 -1 25 -5 37 -9 15 -5 20 -4 16 4 -5 7 -1 8 9 4 12 -4 13
-8 5 -13 -8 -5 -7 -9 5 -14 23 -8 25 -8 23 7 -2 6 4 12 12 12 8 0 14 -6 12
-13 -2 -9 4 -12 15 -8 10 3 25 1 33 -5 12 -8 10 -9 -7 -4 -16 4 -22 2 -20 -7
2 -7 2 -9 -1 -5 -2 4 -10 0 -18 -10 -13 -17 -15 -17 -28 0 -12 16 -14 16 -20
1 -3 -8 -6 -17 -6 -19 0 -11 82 3 90 15 5 8 10 11 10 6 0 -5 8 -2 18 5 15 12
16 12 5 -2 -7 -9 -10 -19 -6 -23 4 -4 0 -4 -10 0 -12 4 -16 2 -12 -8 3 -7 13
-14 23 -14 9 -1 25 -5 35 -9 13 -5 16 -4 11 9 -3 8 -11 14 -17 13 -7 -1 -12 8
-12 21 0 15 -9 29 -25 37 -14 7 -25 17 -25 22 0 4 -16 8 -35 9 -56 2 -60 3
-60 22 -1 16 -1 16 -11 0 -14 -25 -27 -22 -41 7 -13 29 -17 30 -43 12z m33
-22 c-3 -3 -9 2 -12 12 -6 14 -5 15 5 6 7 -7 10 -15 7 -18z"/>
<path d="M1030 536 c0 -17 -24 -27 -47 -20 -10 3 -7 -2 7 -10 30 -18 41 -20
38 -5 -2 6 3 13 10 15 8 1 8 0 1 -3 -8 -4 -8 -8 2 -13 8 -5 18 -2 25 8 10 13
15 14 25 5 10 -10 7 -14 -12 -21 -13 -5 -31 -7 -39 -4 -13 5 -13 3 -2 -10 9
-11 10 -18 2 -23 -6 -3 -8 -11 -5 -16 3 -5 -1 -6 -10 -3 -10 4 -14 2 -10 -8 8
-20 46 -18 40 2 -3 9 1 25 9 35 12 17 16 18 32 5 16 -13 17 -13 12 1 -4 9 -1
22 5 28 8 8 8 11 0 11 -7 0 -15 9 -18 21 -6 19 -8 19 -19 3 -13 -17 -41 -11
-31 7 4 5 1 9 -4 9 -6 0 -11 -6 -11 -14z"/>
<path d="M1930 536 c0 -17 -24 -28 -45 -20 -8 4 -15 1 -15 -6 0 -9 -4 -9 -13
-2 -13 11 -47 -1 -35 -13 12 -13 67 -14 64 -2 -1 7 -1 9 1 5 3 -4 15 0 29 9
23 15 24 14 17 -3 -6 -17 -5 -17 10 -5 14 11 15 17 5 30 -6 9 -1 6 12 -6 20
-18 21 -24 10 -38 -11 -13 -10 -15 11 -12 14 2 25 12 27 23 3 16 1 17 -8 4 -9
-12 -10 -10 -5 9 4 14 3 21 -2 18 -6 -4 -19 0 -29 8 -24 18 -34 19 -34 1z"/>
<path d="M2016 534 c-3 -8 -3 -21 1 -27 9 -14 43 -19 43 -6 0 5 -5 9 -11 9 -5
0 -8 4 -5 9 3 5 0 14 -8 20 -11 9 -15 8 -20 -5z"/>
<path d="M2232 519 c-1 -35 10 -31 15 6 2 14 0 25 -5 25 -5 0 -9 -14 -10 -31z"/>
<path d="M2670 512 c-14 -20 -32 -37 -40 -36 -45 3 -46 4 -30 15 13 9 13 10 0
7 -9 -3 -15 -18 -16 -39 -1 -19 1 -28 3 -21 3 6 8 12 12 12 4 0 8 -6 8 -12 0
-7 4 -22 8 -32 9 -20 -1 -20 -49 -1 -14 6 -17 4 -14 -6 3 -8 11 -14 19 -15 40
-3 44 -4 32 -12 -9 -6 -7 -11 8 -20 18 -11 19 -10 15 12 -3 14 2 30 10 37 8 6
14 16 14 21 0 6 -8 4 -17 -3 -9 -8 -14 -9 -10 -2 4 6 1 14 -5 16 -10 4 -10 6
0 6 7 1 11 5 7 10 -3 5 0 13 6 17 8 5 9 3 4 -7 -8 -12 -6 -12 8 0 13 10 17 10
17 1 0 -10 3 -10 15 0 8 7 12 16 9 21 -3 5 0 9 5 9 6 0 11 4 11 10 0 5 -8 6
-17 3 -17 -7 -17 -6 0 11 14 15 23 36 14 36 -1 0 -14 -17 -27 -38z"/>
<path d="M2706 534 c-3 -9 -4 -20 -1 -24 7 -12 -16 -60 -29 -61 -6 -1 -16 -1
-23 0 -6 1 -15 -4 -19 -10 -4 -7 -3 -9 4 -5 18 11 25 -14 9 -32 -8 -9 -13 -26
-11 -36 5 -31 -5 -37 -31 -20 -14 9 -22 21 -18 27 4 7 0 8 -11 4 -10 -4 -21
-7 -24 -7 -4 0 9 -10 28 -22 34 -22 74 -33 65 -18 -2 4 2 7 10 7 8 0 15 -4 15
-9 0 -4 4 -8 8 -8 4 0 8 9 8 20 0 15 -5 19 -21 15 -11 -3 -14 -2 -7 1 10 5 9
9 -5 20 -13 10 -13 12 -3 9 11 -4 16 2 17 17 1 13 11 30 22 39 11 9 17 20 13
24 -4 5 -2 5 5 1 6 -3 14 -2 18 4 3 5 1 10 -6 10 -9 0 -9 3 0 14 9 10 9 16 1
21 -8 5 -8 11 1 21 7 8 7 14 1 14 -5 0 -13 -7 -16 -16z"/>
<path d="M1208 529 c-5 -14 -58 -21 -58 -7 0 6 -9 0 -19 -13 -11 -13 -15 -26
-10 -27 6 -3 5 -10 -2 -18 -9 -11 -15 -12 -26 -3 -18 16 -25 7 -28 -34 -2 -22
1 -34 10 -34 7 0 12 10 11 23 0 12 -4 20 -8 17 -5 -2 -8 0 -8 6 0 5 18 8 42 6
30 -3 38 -1 28 5 -13 8 -13 11 -1 19 11 7 11 10 0 15 -8 3 -4 3 8 0 16 -4 22
-1 20 8 -2 7 -2 10 0 6 3 -4 16 0 29 9 18 11 24 12 22 3 -2 -7 3 -15 11 -18
10 -3 11 0 5 9 -7 12 -5 12 9 0 9 -7 17 -9 17 -3 0 15 -48 44 -52 31z"/>
<path d="M2727 518 c15 -26 9 -51 -19 -71 -16 -12 -26 -27 -24 -34 3 -7 2 -13
-3 -13 -4 0 -8 -7 -8 -15 0 -8 7 -15 14 -15 10 0 12 -6 8 -20 -4 -12 -2 -20 5
-20 6 0 8 5 4 13 -5 8 -2 8 9 -2 23 -18 22 2 -1 22 -25 23 -22 60 6 62 12 1
19 -2 16 -6 -2 -4 2 -10 8 -12 10 -4 10 -6 1 -6 -7 -1 -10 -8 -7 -16 5 -11 11
-12 25 -4 10 5 19 15 18 22 0 9 -2 9 -6 0 -2 -7 -8 -13 -12 -13 -4 0 -8 6 -8
13 0 6 -4 21 -8 31 -9 20 -4 20 50 1 14 -5 16 -4 7 2 -10 8 -10 12 2 22 10 8
16 9 21 1 8 -13 25 -13 25 1 0 5 -4 8 -8 5 -5 -3 -15 6 -22 19 -14 26 -30 35
-73 41 -20 3 -26 0 -20 -8z m33 -13 c-14 -17 0 -21 17 -4 8 8 14 6 22 -9 15
-27 -9 -49 -36 -32 -17 10 -16 11 2 5 16 -4 21 0 22 16 2 16 -1 18 -12 9 -20
-16 -40 -3 -24 16 6 8 14 14 16 14 3 0 0 -7 -7 -15z m-20 -49 c0 -2 -8 -10
-17 -17 -16 -13 -17 -12 -4 4 13 16 21 21 21 13z"/>
<path d="M271 504 c15 -7 18 -13 9 -16 -7 -2 10 -4 38 -4 29 0 47 3 41 7 -19
11 21 20 42 9 14 -8 19 -7 19 2 0 9 3 9 11 -2 9 -13 10 -13 6 0 -3 12 -23 15
-96 15 -75 1 -87 -1 -70 -11z m59 -8 c-7 -7 -13 -7 -20 0 -6 6 -3 10 10 10 13
0 16 -4 10 -10z"/>
<path d="M822 513 c-6 -2 -10 -8 -7 -12 7 -12 -52 -64 -64 -56 -6 3 -8 11 -5
17 4 7 2 8 -5 4 -6 -4 -11 -13 -10 -19 1 -7 1 -17 0 -23 -2 -16 -48 -34 -68
-27 -16 6 -16 5 -4 -10 10 -13 17 -15 27 -6 11 9 14 8 14 0 0 -7 5 -9 10 -6 6
4 7 12 4 18 -4 7 -4 9 1 5 4 -4 15 2 24 12 9 11 27 21 40 23 14 2 27 9 29 15
2 7 8 10 13 6 5 -3 9 0 9 5 0 6 -6 11 -12 11 -9 0 -8 4 2 10 18 12 40 14 25 2
-17 -12 -15 -44 2 -38 24 10 55 -13 48 -35 -4 -13 -2 -19 7 -17 7 2 12 -5 11
-15 -1 -12 4 -17 14 -13 8 3 23 1 34 -4 12 -7 19 -7 19 -1 0 12 -35 33 -42 25
-11 -10 -35 59 -32 91 2 31 1 32 -15 17 -19 -18 -17 -37 1 -26 7 4 8 2 4 -5
-6 -8 -12 -9 -20 -2 -7 6 -16 8 -20 4 -4 -4 -4 0 0 10 4 11 0 19 -11 23 -13 5
-14 9 -3 15 14 9 1 11 -20 2z"/>
<path d="M2076 504 c-9 -8 -16 -19 -16 -24 0 -14 18 -21 25 -10 3 5 1 10 -6
10 -9 0 -8 4 1 15 10 12 15 12 37 -2 24 -16 24 -17 7 -30 -16 -11 -16 -13 -2
-13 9 0 20 5 23 10 4 6 11 8 16 5 5 -4 12 1 15 9 3 9 11 16 17 16 6 0 7 -3 4
-7 -8 -8 12 -33 26 -33 7 0 7 4 -1 12 -7 7 -12 17 -12 23 0 5 5 3 10 -5 5 -8
10 -10 10 -5 0 30 -37 40 -57 15 -10 -13 -15 -12 -42 8 -36 26 -35 26 -55 6z"/>
<path d="M2256 509 c2 -4 0 -10 -6 -14 -6 -4 -8 -11 -5 -16 4 -5 0 -9 -7 -9
-11 0 -10 -2 0 -9 11 -6 10 -10 -4 -15 -10 -4 -24 0 -34 9 -12 11 -20 13 -25
5 -3 -5 -10 -8 -15 -5 -5 3 -14 -3 -19 -14 -14 -25 -14 -31 0 -31 5 0 7 5 3
11 -4 8 -1 8 14 0 14 -8 19 -17 15 -29 -6 -15 -5 -15 10 -4 19 16 41 6 33 -14
-6 -16 3 -18 24 -4 13 9 13 10 0 10 -13 0 -13 1 0 10 8 5 12 10 8 11 -5 1 -12
3 -18 4 -5 1 -16 3 -22 4 -7 1 -24 10 -37 20 -17 13 -19 18 -7 18 9 0 16 -4
16 -8 0 -5 7 -6 15 -3 8 4 17 -1 21 -10 3 -9 10 -13 15 -10 5 3 7 9 4 14 -8
13 45 1 69 -15 11 -8 17 -15 12 -15 -5 0 -3 -7 4 -15 7 -8 17 -15 22 -15 6 0
5 6 -2 15 -12 15 -5 39 10 30 4 -3 11 2 14 11 5 12 2 15 -11 9 -34 -14 -48
-11 -45 9 3 17 1 18 -12 7 -18 -15 -40 -5 -32 15 3 8 0 14 -7 14 -7 1 0 8 16
16 20 11 32 12 47 4 15 -8 20 -8 20 2 0 9 3 9 11 -2 9 -13 10 -13 6 0 -2 10
-19 15 -55 16 -28 0 -49 -3 -46 -7z"/>
<path d="M447 496 c-4 -9 -12 -14 -18 -10 -8 4 -9 -1 -4 -17 3 -13 3 -19 -2
-14 -4 6 -15 11 -23 13 -11 2 -10 -1 3 -12 19 -14 57 -11 57 6 0 5 -4 6 -10 3
-6 -3 -7 1 -4 10 7 18 7 18 24 -14 6 -13 7 -21 2 -17 -10 6 -28 -30 -24 -46 3
-13 -16 -9 -21 5 -4 9 -6 9 -6 0 -1 -20 36 -36 42 -18 3 7 1 16 -6 19 -9 3 -8
5 1 5 7 1 10 6 6 12 -4 7 1 7 16 -1 20 -11 21 -10 16 8 -4 11 -3 23 2 26 5 3
8 -9 7 -28 -2 -23 1 -33 11 -33 17 0 17 3 4 28 -7 13 -7 25 -1 38 8 15 5 20
-15 30 -14 6 -29 9 -34 6 -5 -3 -10 0 -12 7 -3 7 -7 5 -11 -6z m51 -15 c11 -7
10 -9 -3 -14 -9 -4 -14 -3 -10 2 3 5 -1 12 -7 14 -7 3 -8 6 -3 6 6 0 16 -3 23
-8z"/>
<path d="M1265 489 c-5 -15 -9 -18 -15 -9 -5 8 -10 9 -14 2 -9 -15 5 -21 37
-18 15 2 30 -1 33 -5 3 -5 10 -9 16 -9 6 0 5 7 -3 18 -13 15 -12 16 4 3 12 -9
15 -17 8 -24 -7 -7 -15 -6 -23 1 -8 6 -19 7 -27 2 -8 -4 -21 -5 -30 -2 -14 5
-14 3 -2 -11 10 -13 11 -20 2 -31 -9 -11 -6 -13 14 -13 21 0 23 2 13 14 -9 11
-9 16 2 23 14 9 36 4 59 -14 12 -9 13 -8 9 5 -10 27 5 39 27 22 19 -15 19 -15
-5 -8 -22 7 -23 6 -11 -8 7 -9 17 -14 22 -11 5 3 9 0 9 -5 0 -6 4 -11 9 -11
16 0 6 35 -14 47 -11 7 -15 12 -9 13 12 0 15 30 4 30 -4 0 -13 -7 -20 -15 -17
-20 -32 -8 -24 18 6 20 6 20 -10 4 -21 -21 -36 -22 -36 -2 0 22 -18 18 -25 -6z
m20 -9 c3 -5 1 -10 -4 -10 -6 0 -11 5 -11 10 0 6 2 10 4 10 3 0 8 -4 11 -10z"/>
<path d="M1760 495 c-8 -10 -21 -13 -34 -9 -21 6 -21 6 -1 -9 16 -12 17 -18 8
-28 -10 -10 -16 -9 -31 4 -21 19 -42 22 -42 6 0 -6 6 -9 14 -6 16 6 30 -19 16
-28 -5 -3 -18 -1 -29 5 -26 14 -31 13 -25 -5 3 -8 11 -13 16 -12 17 3 19 -17
4 -38 -11 -16 -17 -17 -29 -7 -12 10 -14 8 -14 -13 0 -17 3 -23 11 -17 21 17
45 21 52 10 4 -6 3 -8 -3 -5 -6 4 -13 0 -17 -8 -6 -17 2 -19 24 -5 12 8 13 13
3 29 -8 13 -9 22 -3 26 6 4 8 10 6 14 -6 9 31 31 59 35 10 1 21 9 23 16 3 7 0
10 -6 6 -6 -3 -9 1 -7 11 1 10 9 17 18 15 11 -2 15 2 11 13 -8 19 -9 19 -24 0z"/>
<path d="M1796 501 c-4 -6 -1 -11 6 -11 8 0 6 -5 -5 -11 -9 -5 -23 -7 -30 -3
-7 5 -7 1 2 -10 11 -13 16 -14 22 -4 5 7 9 9 9 3 0 -12 -20 -43 -20 -31 0 5
-6 3 -13 -3 -8 -6 -17 -8 -20 -4 -4 3 -7 1 -7 -5 0 -6 -6 -9 -14 -6 -7 3 -20
-6 -30 -20 -15 -24 -15 -26 7 -37 12 -6 19 -8 15 -4 -4 4 -3 16 2 26 7 12 6
19 -3 22 -6 3 3 4 21 2 25 -3 32 0 32 13 0 12 3 13 8 5 8 -13 35 -2 32 13 -3
15 15 15 35 0 16 -11 17 -17 7 -29 -10 -12 -8 -14 12 -14 22 0 23 1 10 25 -7
14 -10 30 -7 35 4 6 0 8 -10 4 -9 -3 -19 -2 -21 2 -3 5 5 8 17 7 12 -1 21 -7
20 -13 -1 -6 5 -14 13 -17 11 -4 15 -2 11 8 -6 16 16 40 26 29 4 -3 7 -1 7 5
0 18 -20 24 -26 8 -4 -11 -16 -14 -37 -12 -18 2 -38 -1 -46 -8 -11 -8 -13 -8
-7 1 4 7 3 20 -2 29 -6 11 -11 13 -16 5z"/>
<path d="M1946 488 c-9 -13 -22 -23 -29 -23 -6 0 -12 -7 -13 -15 -3 -44 -4
-46 -15 -30 -9 13 -10 13 -6 0 2 -10 17 -15 43 -16 32 0 40 3 41 18 1 10 -2
18 -8 18 -5 0 -9 -4 -9 -8 0 -4 -10 -8 -22 -9 -13 0 -17 1 -10 4 10 4 10 8 0
21 -10 14 -10 15 2 5 8 -7 17 -13 22 -13 4 0 6 6 4 13 -1 6 -1 9 1 5 3 -5 9
-8 15 -8 7 0 7 4 -1 13 -8 10 -7 17 1 25 6 6 9 14 6 17 -3 4 -13 -4 -22 -17z"/>
<path d="M2367 496 c-4 -9 -12 -14 -18 -10 -8 4 -9 -1 -4 -17 3 -13 3 -19 -2
-14 -4 6 -15 11 -23 13 -11 2 -10 -1 3 -12 19 -14 57 -11 57 6 0 5 -4 6 -10 3
-6 -3 -7 1 -4 10 7 18 7 18 24 -14 6 -13 7 -21 2 -17 -10 6 -28 -30 -24 -46 3
-13 -16 -9 -21 5 -4 9 -6 9 -6 0 -1 -20 36 -36 42 -18 3 7 1 16 -6 19 -9 3 -8
5 1 5 7 1 10 6 6 12 -4 7 1 7 16 -1 20 -11 21 -10 16 8 -4 11 -3 23 2 26 5 3
8 -9 7 -28 -2 -23 1 -33 11 -33 17 0 17 3 4 28 -7 13 -7 25 -1 38 8 15 5 20
-15 30 -14 6 -29 9 -34 6 -5 -3 -10 0 -12 7 -3 7 -7 5 -11 -6z m51 -15 c11 -7
10 -9 -3 -14 -9 -4 -14 -3 -10 2 3 5 -1 12 -7 14 -7 3 -8 6 -3 6 6 0 16 -3 23
-8z"/>
<path d="M371 493 c3 -20 -2 -34 -11 -28 -5 3 -10 1 -10 -4 0 -16 16 -13 30 4
7 8 16 12 21 9 5 -3 9 -1 9 4 0 6 -7 13 -16 16 -20 8 -24 8 -23 -1z"/>
<path d="M962 493 c-10 -4 -9 -8 4 -17 17 -13 11 -41 -7 -31 -5 4 -9 1 -9 -6
0 -6 8 -9 20 -6 13 3 24 -1 30 -14 7 -13 7 -19 1 -19 -6 0 -8 -7 -4 -16 5 -15
7 -15 15 0 5 10 5 23 0 32 -11 20 -3 62 8 44 5 -8 10 -9 14 -1 5 8 -44 43 -56
40 -2 0 -9 -3 -16 -6z m41 -29 c-7 -19 -10 -18 -16 5 -3 13 -1 18 9 14 7 -2
10 -11 7 -19z"/>
<path d="M1187 493 c-15 -14 -6 -25 11 -12 14 11 15 11 5 -1 -19 -21 -16 -35
4 -19 14 12 16 12 8 0 -5 -9 -4 -12 2 -8 5 4 9 -12 8 -38 -1 -24 2 -42 6 -39
5 3 6 -2 3 -10 -3 -9 -1 -16 6 -16 6 0 9 4 6 8 -7 12 38 10 47 -2 5 -7 7 -4 3
7 -3 11 -2 16 5 12 5 -4 7 -14 4 -24 -3 -12 1 -17 15 -18 11 -1 20 2 20 8 0 5
-5 9 -11 9 -5 0 -8 4 -5 9 10 15 -17 29 -49 26 -37 -5 -49 3 -34 21 9 11 9 17
-1 29 -7 8 -10 15 -6 15 4 0 -1 11 -10 25 -17 26 -26 30 -37 18z"/>
<path d="M2093 487 c3 -9 0 -21 -8 -27 -10 -8 -17 -6 -28 10 -13 19 -18 20
-39 9 -12 -7 -26 -12 -30 -11 -13 3 -16 -27 -2 -32 7 -3 13 0 11 6 -1 7 7 12
18 13 12 0 19 6 17 15 -2 10 4 7 18 -8 12 -12 26 -20 32 -16 14 9 29 -17 22
-41 -4 -15 -3 -16 4 -6 6 8 12 9 16 3 3 -6 1 -12 -6 -14 -9 -3 -8 -13 4 -38 9
-18 13 -40 10 -49 -5 -14 -3 -14 10 -3 11 9 18 10 23 2 3 -6 11 -8 16 -5 5 3
6 -1 3 -10 -4 -10 -2 -14 8 -10 7 3 14 14 14 25 0 13 -5 19 -14 15 -24 -9 -54
14 -46 37 4 13 2 18 -4 14 -6 -3 -14 -1 -18 5 -4 7 -3 10 2 7 5 -3 17 3 26 13
17 18 17 19 -5 16 -14 -1 -22 3 -22 13 0 8 -6 19 -14 24 -12 7 -12 11 2 20 14
11 13 13 -5 25 -18 11 -20 11 -15 -2z"/>
<path d="M2280 489 c-13 -9 -12 -10 2 -5 12 3 15 1 11 -9 -3 -8 -9 -12 -14 -9
-5 3 -9 0 -9 -5 0 -16 16 -13 30 4 7 8 16 12 21 9 5 -3 9 -1 9 4 0 6 -7 13
-16 16 -19 7 -16 8 -34 -5z"/>
<path d="M1460 481 c0 -12 29 -41 41 -41 6 0 8 4 4 9 -3 5 0 13 7 17 7 4 10 3
5 -1 -4 -5 0 -17 9 -27 12 -13 14 -21 6 -31 -7 -8 -7 -18 -2 -27 6 -8 10 -13
11 -10 0 3 2 16 5 30 2 14 13 32 24 41 10 9 16 20 12 25 -4 5 1 2 11 -5 14
-11 17 -11 17 -1 0 8 3 10 7 7 3 -4 -2 -17 -13 -29 -18 -20 -18 -21 -1 -15 10
4 16 3 12 -2 -3 -5 0 -11 7 -13 7 -3 5 -7 -6 -11 -10 -4 -15 -3 -11 3 3 6 1
10 -5 10 -7 0 -10 -6 -7 -12 2 -7 8 -13 13 -13 5 0 15 -4 23 -9 13 -9 31 8 30
29 0 6 -3 4 -6 -2 -6 -17 -20 -17 -20 0 0 6 -4 21 -8 31 -7 16 -5 18 13 14 15
-4 19 -2 15 8 -3 8 -9 12 -13 9 -5 -3 -12 0 -17 7 -9 15 -43 20 -43 8 0 -17
-31 -39 -46 -33 -11 4 -12 8 -3 19 7 8 9 17 5 21 -3 3 -6 1 -6 -4 0 -12 -39
-11 -58 1 -7 4 -12 3 -12 -3z"/>
<path d="M550 465 c0 -8 5 -15 10 -15 6 0 10 7 10 15 0 8 -4 15 -10 15 -5 0
-10 -7 -10 -15z"/>
<path d="M1437 474 c8 -4 6 -11 -8 -25 -21 -21 -25 -39 -8 -39 5 0 7 5 3 11
-3 6 8 4 24 -5 37 -19 42 -20 38 -3 -1 6 -1 8 2 4 2 -4 11 -2 20 5 15 12 16
11 4 -4 -8 -9 -11 -22 -7 -29 4 -6 1 -16 -6 -21 -11 -8 -10 -9 4 -4 11 3 16 2
12 -5 -4 -5 -14 -7 -24 -4 -12 3 -17 -1 -17 -15 0 -11 4 -20 8 -20 4 0 8 5 8
11 0 5 4 8 9 5 16 -11 33 21 22 42 -7 13 -7 22 1 30 15 15 2 30 -26 27 -17 -2
-27 4 -35 21 -6 13 -16 24 -23 23 -10 0 -10 -2 -1 -5z m27 -40 c3 -8 2 -12 -4
-9 -6 3 -10 10 -10 16 0 14 7 11 14 -7z"/>
<path d="M2470 465 c0 -8 5 -15 10 -15 6 0 10 7 10 15 0 8 -4 15 -10 15 -5 0
-10 -7 -10 -15z"/>
<path d="M275 460 c-3 -5 -1 -10 4 -10 6 0 11 5 11 10 0 6 -2 10 -4 10 -3 0
-8 -4 -11 -10z"/>
<path d="M917 456 c-4 -9 -2 -16 3 -16 5 0 7 -6 4 -14 -3 -8 9 -22 31 -35 30
-17 35 -25 30 -44 -5 -17 -4 -19 4 -7 10 13 11 13 12 0 0 -9 4 -7 11 8 6 12
19 22 30 22 10 0 18 5 18 11 0 6 -7 8 -16 5 -14 -5 -15 -4 -4 9 7 8 8 15 3 15
-5 0 -15 -12 -22 -27 -12 -26 -14 -27 -26 -10 -7 10 -11 28 -8 40 5 22 5 22
-10 2 -8 -11 -19 -17 -23 -12 -4 4 -1 7 6 7 9 0 8 5 -5 13 -18 14 -13 43 6 32
5 -4 9 -1 9 4 0 6 -7 11 -15 11 -8 0 -15 -6 -15 -12 0 -10 -2 -10 -9 0 -7 11
-9 11 -14 -2z"/>
<path d="M1150 460 c0 -5 6 -10 14 -10 8 0 17 -7 20 -16 3 -8 10 -12 16 -9 5
3 10 1 10 -4 0 -6 -4 -11 -9 -11 -10 0 -9 -26 2 -36 4 -4 2 -13 -5 -21 -6 -7
-8 -17 -4 -20 4 -4 10 -2 14 4 5 7 11 7 20 -3 7 -8 10 -14 6 -14 -3 0 -1 -7 6
-15 7 -8 17 -15 22 -15 6 0 6 6 -1 14 -6 7 -9 21 -5 30 4 12 2 15 -9 10 -19
-7 -31 12 -33 56 -2 50 -3 52 -14 45 -6 -3 -13 1 -16 9 -7 18 -34 22 -34 6z"/>
<path d="M1715 460 c-3 -5 -1 -10 4 -10 6 0 11 5 11 10 0 6 -2 10 -4 10 -3 0
-8 -4 -11 -10z"/>
<path d="M623 443 c-13 -8 -23 -21 -23 -27 0 -6 5 -4 10 4 7 11 10 11 10 2 0
-10 5 -10 23 -2 21 10 21 10 3 -4 -16 -13 -17 -17 -3 -36 9 -12 13 -30 10 -39
-6 -14 -3 -13 14 2 24 21 43 6 23 -19 -11 -12 -9 -14 11 -11 14 2 25 12 27 23
3 16 1 17 -7 4 -12 -17 -14 -10 -5 15 6 13 9 14 16 3 7 -10 8 -8 4 5 -3 11 -2
16 5 12 5 -4 7 -14 4 -24 -3 -12 1 -17 15 -17 11 0 20 4 20 8 0 4 -4 8 -8 8
-5 0 -9 6 -9 13 0 6 -2 19 -4 27 -2 9 2 14 10 12 7 -1 19 2 25 8 7 5 15 7 19
4 3 -3 15 0 27 6 17 9 25 9 34 0 8 -8 7 -10 -4 -5 -11 4 -16 -1 -17 -16 l-2
-22 21 21 c12 12 19 24 15 28 -11 11 -76 13 -83 3 -3 -5 -10 -7 -15 -4 -5 4
-9 2 -9 -4 0 -6 -6 -8 -13 -5 -7 2 -22 -8 -34 -24 -23 -31 -50 -35 -78 -12
-16 13 -16 15 0 26 13 10 14 16 5 33 -6 12 -12 21 -13 20 -1 0 -12 -7 -24 -16z"/>
<path d="M1575 437 c-10 -8 -15 -19 -11 -25 4 -7 2 -12 -4 -12 -6 0 -8 -5 -5
-10 4 -6 10 -8 15 -5 15 10 0 -47 -21 -77 -11 -15 -16 -28 -10 -28 6 0 15 9
21 19 6 12 17 17 29 14 16 -4 19 0 17 18 -1 13 -7 33 -14 45 -12 22 -11 41 1
62 10 16 5 15 -18 -1z m21 -97 c0 -12 -4 -16 -9 -11 -5 5 -6 14 -3 20 10 15
12 14 12 -9z"/>
<path d="M2003 436 c1 -5 -3 -10 -10 -11 -16 0 -29 -15 -14 -15 7 0 9 -4 6
-10 -3 -5 -20 -8 -38 -6 -37 4 -57 -2 -57 -16 0 -6 8 -5 18 3 14 11 15 11 5
-1 -18 -20 -16 -26 7 -26 15 0 18 5 14 18 -3 10 0 18 6 18 6 0 9 -3 6 -8 -2
-4 9 -8 25 -8 19 -1 28 3 26 10 -2 6 0 19 5 29 7 14 12 16 23 7 8 -7 20 -8 27
-4 25 16 38 13 28 -5 -6 -12 -5 -22 2 -29 9 -9 9 -12 0 -12 -12 0 -16 13 -12
39 1 13 -1 13 -14 2 -12 -10 -19 -11 -30 -2 -11 9 -13 6 -13 -14 0 -21 2 -23
14 -13 18 15 33 -4 26 -36 -4 -19 -3 -19 7 -3 6 9 16 17 23 17 8 0 8 -3 -1 -9
-11 -7 -11 -9 2 -14 8 -3 17 -3 19 1 2 4 2 1 0 -6 -1 -7 2 -23 8 -34 8 -15 8
-19 0 -14 -14 9 -14 -4 -1 -24 10 -16 12 -13 14 33 1 15 -2 27 -7 27 -4 0 -5
5 -1 12 4 6 1 16 -7 22 -8 6 -14 26 -14 45 0 36 -5 39 -67 45 -15 1 -26 -2
-25 -8z"/>
<path d="M1103 431 c-4 -3 -9 -19 -10 -35 -1 -22 1 -25 9 -15 7 10 8 8 3 -8
-5 -18 -3 -22 9 -17 9 3 13 10 10 15 -3 5 1 6 9 3 8 -3 14 2 14 11 0 9 -6 14
-13 11 -16 -6 -39 20 -25 28 5 4 12 2 16 -4 4 -6 11 -8 16 -5 5 4 9 1 9 -4 0
-6 4 -11 10 -11 5 0 8 6 6 13 -1 6 -1 9 1 5 3 -5 10 -8 16 -8 7 0 7 4 -1 12
-14 14 -64 19 -79 9z"/>
<path d="M1818 433 c6 -2 12 -10 12 -15 0 -6 -3 -9 -6 -5 -4 3 -19 0 -35 -9
-16 -8 -31 -14 -34 -14 -19 1 -24 -2 -29 -16 -3 -8 -2 -12 4 -9 6 3 10 2 10
-3 0 -5 7 -9 15 -9 9 0 14 5 12 11 -3 6 -11 10 -18 8 -8 -2 -10 0 -6 4 12 12
36 13 43 2 4 -6 13 -1 21 13 8 13 12 16 9 6 -4 -12 -2 -16 6 -11 7 5 8 3 3 -6
-6 -9 -4 -11 5 -5 8 5 11 4 6 -3 -4 -6 -14 -8 -24 -5 -15 6 -15 5 -3 -10 11
-14 11 -20 1 -32 -11 -13 -9 -15 11 -12 14 2 25 12 27 23 3 16 1 17 -7 4 -13
-19 -14 0 -1 20 9 13 10 13 10 0 0 -13 1 -13 11 0 8 12 9 11 5 -5 -5 -16 -1
-21 14 -21 11 0 20 4 20 8 0 4 -5 8 -11 8 -5 0 -8 4 -5 9 3 5 -1 14 -9 21 -12
10 -15 10 -15 0 0 -10 -3 -10 -15 0 -12 10 -13 16 -3 27 9 11 9 16 -3 24 -8 5
-18 8 -24 8 -5 0 -4 -3 3 -6z"/>
<path d="M300 418 c0 -4 -6 -5 -14 -2 -9 3 -19 -4 -26 -18 -7 -13 -21 -32 -31
-43 -18 -20 -18 -21 1 -33 22 -13 27 -3 8 16 -9 9 -9 12 -1 12 7 0 15 10 18
21 5 15 10 18 15 9 5 -9 9 -8 13 4 3 8 1 16 -5 18 -6 2 12 4 40 4 29 0 46 -3
39 -8 -12 -8 -10 -9 16 -12 6 -1 11 -9 9 -19 -2 -12 2 -15 15 -10 17 7 17 6 1
-11 -22 -22 -23 -33 -3 -33 9 0 14 6 11 14 -3 8 -2 12 3 9 5 -3 12 1 15 10 3
8 10 13 15 10 14 -9 20 -45 9 -53 -6 -3 -8 -1 -5 4 4 6 0 14 -9 17 -12 5 -15
2 -10 -10 3 -8 6 -18 6 -20 0 -10 28 -3 39 9 8 10 7 17 -1 25 -8 8 -8 15 2 27
11 13 8 15 -24 11 -31 -4 -39 -1 -58 25 -12 16 -28 27 -35 25 -7 -3 -13 -2
-13 2 0 4 -9 8 -20 8 -11 0 -20 -4 -20 -8z"/>
<path d="M533 410 c2 -23 -1 -25 -32 -22 -27 2 -32 0 -23 -11 9 -10 9 -16 0
-25 -8 -8 -8 -15 1 -26 8 -10 9 -16 2 -21 -6 -3 -15 -14 -21 -25 -8 -14 -6
-18 7 -16 9 2 19 9 21 16 3 8 0 10 -8 5 -9 -5 -11 -4 -6 4 4 6 11 9 16 6 4 -3
10 2 14 10 3 8 2 15 -2 15 -4 0 -8 13 -7 29 0 19 4 27 13 24 7 -3 19 0 27 7
12 10 15 10 15 0 0 -9 6 -8 19 4 13 12 21 14 26 6 3 -5 12 -7 18 -4 8 4 7 2
-1 -7 -11 -12 -14 -12 -22 1 -5 8 -10 13 -11 10 0 -3 -2 -16 -5 -29 -3 -19 -2
-22 10 -12 16 14 42 5 50 -16 5 -13 4 -13 -7 -4 -11 9 -17 8 -26 -2 -9 -11 -5
-14 18 -15 25 0 29 3 27 21 -5 38 -28 76 -42 70 -9 -3 -14 2 -14 13 -1 18 -1
18 -11 2 -5 -10 -15 -18 -22 -18 -8 0 -6 4 3 11 13 9 13 10 -2 6 -9 -3 -19 -1
-22 6 -2 7 -4 1 -3 -13z"/>
<path d="M1286 422 c-4 -6 3 -16 14 -22 33 -18 53 -55 41 -78 -9 -16 -8 -20 4
-18 19 3 32 16 15 16 -10 0 -10 3 0 15 10 12 10 15 -1 15 -11 0 -11 2 1 10 14
9 7 14 -13 11 -5 -1 -5 4 -1 10 4 7 3 9 -3 6 -6 -4 -10 1 -9 11 0 9 -6 17 -14
17 -8 0 -18 4 -21 9 -4 4 -9 3 -13 -2z"/>
<path d="M2247 423 c-10 -15 7 -25 30 -17 15 5 15 4 3 -5 -15 -10 -13 -12 13
-15 6 -1 11 -9 9 -19 -2 -12 2 -15 15 -10 17 7 17 6 1 -11 -22 -22 -23 -33 -3
-33 9 0 14 6 11 14 -3 8 -2 12 3 9 5 -3 12 1 15 10 3 8 10 13 15 10 14 -9 20
-45 9 -53 -6 -3 -8 -1 -5 4 4 6 0 14 -9 17 -12 5 -15 2 -10 -10 3 -8 6 -18 6
-20 0 -10 28 -3 39 9 8 10 7 17 -1 25 -8 8 -8 15 2 27 11 13 8 15 -24 11 -31
-4 -39 -1 -58 25 -12 16 -28 27 -34 25 -7 -3 -14 0 -17 7 -2 8 -5 8 -10 0z"/>
<path d="M2453 410 c2 -23 -1 -25 -32 -22 -27 2 -32 0 -23 -11 9 -10 9 -16 0
-25 -8 -8 -8 -15 1 -26 8 -10 9 -16 2 -21 -6 -3 -15 -14 -21 -25 -8 -14 -6
-18 7 -16 9 2 19 9 21 16 3 8 0 10 -8 5 -9 -5 -11 -4 -6 4 4 6 11 9 16 6 4 -3
10 2 14 10 3 8 2 15 -2 15 -4 0 -8 13 -7 29 0 19 4 27 13 24 7 -3 19 0 27 7
12 10 15 10 15 0 0 -9 7 -7 20 5 11 10 20 25 20 34 -1 14 -2 13 -11 -1 -5 -10
-15 -18 -22 -18 -8 0 -6 4 3 11 13 9 13 10 -2 6 -9 -3 -19 -1 -22 6 -2 7 -4 1
-3 -13z"/>
<path d="M2523 420 c4 -17 -38 -53 -65 -55 -27 -2 -39 -17 -28 -35 9 -13 11
-13 20 0 5 8 10 11 10 5 0 -5 9 1 20 15 16 20 19 21 14 5 -6 -16 -5 -18 7 -7
17 16 24 15 44 -4 9 -9 19 -13 23 -9 4 3 -1 11 -11 16 -9 6 -15 14 -12 19 3 5
-1 22 -10 37 -9 16 -14 21 -12 13z m11 -42 c-3 -4 -9 -8 -15 -8 -5 0 -9 4 -9
8 0 5 7 9 15 9 8 0 12 -4 9 -9z"/>
<path d="M2705 399 c1 -10 10 -27 20 -39 27 -30 13 -38 -72 -44 -28 -2 -47 1
-54 10 -9 11 -15 12 -26 3 -10 -9 -18 -8 -33 6 -11 10 -24 14 -32 9 -7 -5 -15
-9 -18 -10 -26 -4 -61 -32 -71 -56 -7 -18 -17 -27 -26 -24 -8 3 -11 1 -8 -4 3
-6 2 -10 -4 -10 -6 0 -8 -7 -5 -15 4 -8 10 -12 15 -9 5 3 6 11 3 17 -4 7 -3 8
1 4 5 -4 15 3 22 15 l14 23 -7 -25 c-6 -24 -5 -24 12 -8 13 13 15 20 6 31 -10
11 -9 17 3 27 11 9 15 9 15 1 0 -7 5 -9 10 -6 6 4 7 11 4 17 -5 7 -2 8 6 3 9
-6 11 -4 5 5 -5 9 -4 11 4 6 6 -4 20 -2 29 6 15 12 16 11 4 -4 -12 -15 -9 -16
25 -16 58 0 63 -1 61 -13 -2 -6 3 -14 10 -16 7 -3 12 -1 11 4 -3 20 2 25 16
13 12 -10 15 -10 15 0 0 10 3 10 15 0 12 -10 15 -10 15 1 0 11 2 11 10 -1 9
-14 15 -6 10 15 -1 5 7 2 18 -8 23 -21 38 -22 46 -1 9 22 8 24 -9 18 -8 -4
-12 -11 -8 -17 3 -5 1 -7 -5 -4 -11 8 -5 44 9 53 5 3 6 -3 2 -13 -6 -17 -5
-17 15 0 11 11 26 16 32 12 7 -4 10 0 8 10 -2 11 4 19 15 21 14 2 15 -1 8 -10
-6 -7 -8 -16 -4 -19 3 -4 1 -7 -5 -7 -7 0 -12 -4 -12 -8 0 -16 40 -7 46 10 3
10 9 16 13 14 4 -3 8 4 8 16 1 13 -3 18 -13 14 -8 -3 -21 -3 -30 1 -13 5 -13
7 -2 14 7 5 8 9 2 9 -5 0 -20 -13 -32 -29 -17 -23 -28 -29 -49 -26 -16 2 -31
4 -35 4 -4 1 -5 10 -3 20 2 11 -2 22 -9 24 -7 3 -12 -2 -11 -14z m163 -29 c-7
-10 -14 -17 -17 -15 -4 4 18 35 25 35 2 0 -1 -9 -8 -20z"/>
<path d="M793 397 c-3 -5 -11 -6 -19 -3 -12 5 -12 1 1 -24 8 -16 12 -35 9 -43
-3 -8 -1 -18 5 -21 7 -5 9 4 7 23 -2 19 1 28 7 24 5 -3 7 0 5 8 -3 8 -11 13
-17 11 -7 -1 -10 2 -6 8 5 8 11 7 21 -1 11 -9 14 -8 14 2 0 7 11 -1 23 -19
l24 -32 13 25 c16 30 7 43 -16 25 -13 -12 -17 -11 -24 0 -6 9 -5 17 2 21 6 4
-1 6 -16 6 -16 -1 -30 -6 -33 -10z"/>
<path d="M1350 402 c0 -11 22 -32 33 -32 4 0 5 5 1 11 -5 8 -1 8 14 0 16 -8
21 -7 26 4 3 8 11 15 18 15 10 0 10 -2 -1 -9 -9 -6 -10 -10 -2 -16 9 -5 9 -10
1 -20 -8 -9 -6 -14 6 -19 24 -9 26 -8 19 13 -4 13 1 20 17 25 22 6 21 7 -10
21 -25 11 -39 12 -53 5 -13 -7 -25 -7 -38 0 -24 12 -31 13 -31 2z m120 -16 c0
-3 -4 -8 -10 -11 -5 -3 -10 -1 -10 4 0 6 5 11 10 11 6 0 10 -2 10 -4z"/>
<path d="M301 391 c-9 -6 -10 -11 -2 -15 6 -4 11 -2 11 3 0 6 5 11 11 11 5 0
7 -5 4 -10 -4 -6 -1 -9 7 -8 8 2 12 -5 11 -19 -2 -13 2 -21 10 -19 6 1 8 1 4
-2 -4 -2 -2 -11 5 -20 10 -14 10 -15 -2 -4 -20 17 -35 15 -20 -3 7 -9 20 -13
28 -10 12 4 12 3 3 -8 -9 -11 -7 -17 6 -28 15 -12 16 -12 11 2 -8 20 6 46 16
30 4 -6 2 -11 -5 -11 -8 0 -8 -4 1 -15 7 -8 16 -12 21 -9 5 3 9 0 9 -5 0 -6 4
-11 9 -11 17 0 7 40 -11 46 -10 3 -16 9 -13 13 2 5 -5 8 -18 7 -17 -1 -21 4
-20 22 2 12 -2 22 -8 22 -8 0 -7 6 2 18 7 9 10 14 5 10 -5 -4 -18 -1 -30 7
-24 17 -26 18 -45 6z"/>
<path d="M1162 391 c-11 -7 -11 -9 1 -14 9 -3 18 1 21 9 6 16 -2 18 -22 5z"/>
<path d="M1067 375 c-4 -9 -3 -24 3 -33 8 -14 9 -14 10 -2 0 13 1 13 10 0 14
-22 11 1 -4 29 -11 20 -14 21 -19 6z"/>
<path d="M2150 381 c0 -6 5 -11 11 -11 8 0 7 -5 -1 -15 -7 -9 -10 -18 -7 -22
10 -9 78 -12 72 -3 -3 5 -1 12 5 15 6 4 10 3 9 -2 -4 -25 4 -24 16 2 10 19 13
22 9 8 -4 -16 -1 -22 8 -20 7 2 9 2 5 -1 -4 -2 -2 -11 5 -20 10 -14 10 -15 -2
-4 -20 17 -35 15 -20 -3 7 -9 20 -13 28 -10 12 4 12 3 3 -8 -9 -11 -7 -17 6
-28 15 -12 16 -12 11 2 -8 20 6 46 16 30 4 -6 2 -11 -5 -11 -8 0 -8 -4 1 -15
7 -8 16 -12 21 -9 5 3 9 0 9 -5 0 -6 4 -11 9 -11 17 0 7 40 -11 46 -10 3 -16
9 -13 13 2 5 -5 8 -18 7 -17 -1 -21 4 -20 22 2 12 -2 22 -8 22 -7 0 -7 6 2 17
8 10 9 14 2 10 -6 -4 -14 -3 -18 3 -7 12 -26 14 -24 3 4 -25 -3 -31 -33 -28
-20 3 -28 1 -20 -4 11 -6 10 -10 -4 -15 -9 -4 -22 -2 -28 4 -8 8 -6 9 7 4 10
-3 17 -3 16 2 -4 21 2 35 11 29 6 -3 10 -1 10 4 0 14 -17 14 -25 1 -5 -8 -11
-7 -21 1 -10 8 -14 8 -14 0z"/>
<path d="M1523 343 c-23 -26 -37 -33 -50 -28 -10 3 -20 7 -23 8 -3 1 -6 -1 -7
-5 -2 -5 -1 -7 0 -5 2 1 12 -4 21 -12 15 -13 19 -13 27 0 8 10 8 8 4 -10 -5
-15 -3 -21 3 -17 6 4 15 -2 21 -11 9 -16 10 -16 11 -1 0 9 -4 19 -9 22 -10 7
-9 31 2 42 3 4 4 -3 2 -15 -2 -12 0 -19 6 -16 5 4 7 10 4 15 -3 4 2 11 11 14
9 3 14 13 11 20 -3 8 -1 16 6 19 6 2 7 6 2 9 -6 3 -24 -10 -42 -29z"/>
<path d="M1773 353 c-1 -20 1 -23 9 -12 8 11 9 10 4 -3 -7 -22 2 -48 16 -48 7
0 6 5 -1 13 -8 10 -7 17 1 25 10 10 8 17 -7 32 -20 19 -20 19 -22 -7z"/>
<path d="M2025 370 c-3 -5 -2 -17 3 -26 5 -9 7 -26 5 -38 -4 -17 -3 -18 6 -6
9 13 11 12 12 -5 1 -11 1 -24 0 -28 -1 -5 9 -6 21 -2 16 4 19 3 10 -3 -8 -5
-14 -13 -13 -18 0 -5 -8 -8 -18 -7 -10 1 -18 -4 -18 -13 0 -9 6 -13 16 -9 13
5 13 4 4 -6 -9 -9 -15 -9 -26 0 -12 9 -14 7 -14 -14 0 -17 3 -23 11 -17 22 17
45 21 52 9 4 -7 4 -9 -1 -5 -4 4 -15 -1 -24 -10 -9 -10 -12 -12 -7 -5 5 8 4
13 -3 13 -6 0 -14 -7 -17 -15 -6 -14 -8 -13 -19 2 -13 17 -14 17 -20 1 -5 -11
-16 -16 -35 -15 -15 1 -26 6 -23 10 2 4 13 5 24 2 13 -5 17 -2 14 7 -3 8 -18
14 -33 14 -15 1 -35 4 -45 9 -13 5 -16 4 -11 -9 3 -8 11 -14 16 -13 6 1 13 -5
15 -13 4 -13 3 -13 -6 0 -6 8 -11 10 -11 4 0 -7 -11 -11 -24 -10 -13 0 -22 5
-18 10 3 5 0 6 -6 2 -15 -9 -26 12 -13 28 6 7 8 16 4 19 -12 12 -19 7 -20 -15
-3 -32 -29 -56 -45 -39 -11 10 -10 11 5 5 12 -4 16 -2 12 8 -3 7 -13 14 -23
14 -9 1 -25 5 -35 9 -13 5 -16 4 -11 -9 3 -8 11 -14 16 -13 6 1 13 -5 15 -13
4 -13 3 -13 -6 0 -6 8 -11 10 -11 4 0 -7 -11 -11 -24 -10 -13 0 -22 5 -18 10
3 5 0 6 -6 2 -15 -9 -26 12 -13 28 7 9 7 16 -1 24 -17 17 -35 15 -42 -4 -9
-22 -8 -24 9 -18 8 4 12 11 8 17 -3 6 -1 7 5 3 11 -7 7 -31 -11 -53 -8 -11
-18 -11 -56 -4 -2 1 2 8 9 16 8 9 9 15 2 15 -6 0 -13 -4 -16 -9 -9 -14 -45
-20 -53 -9 -3 6 -1 8 4 5 6 -4 13 0 17 8 6 17 -2 19 -23 6 -8 -5 -12 -15 -9
-23 4 -9 -1 -14 -12 -14 -10 0 -16 4 -14 8 3 4 0 8 -5 8 -6 0 -11 -6 -11 -12
0 -7 -6 -4 -12 7 -19 33 -53 49 -42 20 4 -8 10 -12 15 -9 5 3 6 -3 2 -12 -4
-10 -8 -13 -10 -7 -3 7 -11 9 -19 6 -28 -10 -4 -19 50 -18 33 0 56 -4 56 -10
0 -6 3 -7 8 0 10 14 65 14 74 1 5 -7 8 -7 8 2 0 10 5 10 21 1 14 -7 19 -7 15
-1 -7 12 63 10 82 -2 7 -4 12 -3 12 2 0 10 42 8 61 -4 7 -4 9 -3 5 4 -7 12 62
10 82 -2 7 -4 12 -4 12 1 0 10 51 10 66 1 6 -4 14 -4 18 -1 12 12 56 11 56 -1
0 -7 3 -6 8 1 4 7 18 11 29 9 13 -3 24 1 27 10 5 12 1 12 -17 4 -21 -11 -21
-11 -2 5 16 12 17 19 8 33 -8 14 -7 22 2 36 9 11 15 14 20 6 4 -6 1 -17 -5
-25 -8 -10 -9 -15 -2 -15 6 0 16 8 21 18 8 12 10 13 11 3 0 -11 4 -9 15 5 15
19 15 19 31 -1 15 -20 16 -19 12 5 -2 20 1 25 18 23 13 -1 21 4 21 13 0 9 -6
13 -16 9 -19 -8 -20 -8 -46 -6 -15 1 -17 3 -6 10 9 6 10 11 2 15 -5 4 -17 -7
-26 -24 l-16 -31 -31 31 c-21 21 -28 34 -21 41 7 7 13 7 18 -2 5 -8 4 -10 -3
-5 -7 4 -12 2 -12 -3 0 -6 7 -11 15 -11 17 0 19 9 6 29 -5 8 -16 11 -25 8 -10
-4 -20 1 -26 13 -7 13 -6 20 2 22 9 3 9 6 1 11 -7 4 -14 3 -18 -3z m145 -115
c0 -1 -9 -5 -19 -8 -13 -3 -18 -1 -14 9 4 10 33 10 33 -1z"/>
<path d="M255 352 c-3 -7 -3 -18 1 -23 10 -16 -6 -31 -21 -19 -10 8 -21 7 -44
-5 -17 -8 -31 -12 -31 -8 -1 11 -30 -29 -30 -41 0 -5 6 -1 14 10 12 15 17 16
27 7 9 -9 9 -15 0 -26 -9 -12 -7 -14 13 -14 22 0 23 1 10 26 -12 23 -12 28 3
39 9 6 22 12 27 12 6 -1 1 -6 -11 -13 -22 -12 -22 -13 -2 -25 17 -11 20 -11
17 5 -2 13 3 18 19 17 13 -1 20 3 16 9 -4 6 -1 7 7 2 8 -5 11 -4 6 3 -3 6 -1
14 5 17 5 4 8 14 4 24 -5 12 -4 13 6 4 10 -10 9 -16 -1 -28 -12 -15 -11 -16 6
-13 12 2 18 -2 16 -10 -1 -8 2 -11 7 -8 5 4 13 2 16 -4 4 -6 1 -9 -6 -8 -7 2
-14 -6 -16 -17 -3 -17 -2 -18 7 -5 9 12 10 11 6 -5 -5 -16 -1 -21 15 -22 17
-2 19 1 10 10 -6 6 -11 15 -11 20 0 5 9 -1 20 -14 31 -38 23 -11 -9 30 -21 26
-26 41 -20 56 13 33 9 42 -7 15 -12 -20 -14 -21 -9 -4 4 17 1 20 -25 20 -16 0
-32 -6 -35 -14z"/>
<path d="M516 357 c-11 -9 -13 -16 -6 -27 6 -9 13 -11 18 -5 9 12 36 19 28 7
-9 -14 32 -11 45 4 7 9 8 14 1 14 -6 0 -14 -5 -17 -10 -8 -14 -28 -1 -22 14 6
16 -27 18 -47 3z"/>
<path d="M814 350 c-4 -14 -7 -30 -6 -37 4 -22 -17 -23 -31 -2 -13 18 -18 19
-39 8 -12 -7 -26 -12 -30 -11 -3 1 -9 -5 -12 -13 -6 -16 5 -20 18 -8 4 4 15 8
24 8 10 0 16 7 14 15 -2 11 1 10 12 -3 8 -10 24 -20 37 -22 26 -5 58 10 46 21
-3 4 -15 1 -24 -7 -17 -13 -17 -13 -1 7 10 11 14 25 10 30 -4 5 1 1 11 -10 10
-11 15 -26 12 -33 -3 -9 0 -13 7 -11 7 3 13 9 14 14 1 15 23 60 23 49 1 -6 10
-11 20 -11 11 0 17 4 15 8 -3 4 0 8 6 8 7 0 9 -8 5 -20 -5 -15 -3 -18 8 -14
20 7 32 -13 18 -30 -6 -7 -7 -17 -3 -21 4 -5 1 -5 -5 -1 -7 4 -13 2 -13 -4 0
-15 35 -8 36 8 1 6 2 20 3 30 1 15 3 15 11 2 8 -13 10 -13 10 1 0 9 7 20 16
23 8 3 12 2 9 -3 -3 -5 -1 -13 5 -16 8 -5 8 -11 1 -19 -8 -10 -4 -13 18 -14
29 -1 29 0 10 19 -10 10 -19 25 -19 32 0 8 4 7 10 -3 5 -8 10 -10 10 -4 0 5
-7 19 -15 30 -15 19 -15 19 -32 -2 -10 -11 -24 -19 -30 -18 -7 1 -18 2 -24 3
-5 0 -7 6 -4 11 7 11 6 11 -43 15 -24 2 -35 -2 -43 -17 -11 -20 -12 -20 -34 8
l-22 28 -9 -24z"/>
<path d="M1129 353 c-13 -8 -17 -12 -8 -9 9 2 22 -1 29 -7 10 -10 11 -8 6 8
-6 15 -4 17 5 8 6 -6 12 -23 12 -37 0 -20 2 -24 12 -16 9 8 15 8 20 0 3 -6 11
-8 16 -5 5 3 6 -1 3 -10 -5 -11 -2 -14 10 -9 10 4 18 0 22 -10 3 -9 10 -13 15
-10 5 3 6 11 3 17 -4 8 -2 7 7 -1 12 -11 12 -14 0 -21 -17 -11 -36 -5 -73 21
-16 11 -28 15 -28 9 0 -6 9 -15 20 -21 13 -7 17 -16 13 -28 -6 -15 -5 -15 11
-3 13 11 19 12 29 2 9 -10 8 -16 -8 -28 -20 -15 -20 -15 2 -10 13 3 26 0 30
-5 3 -6 1 -8 -4 -5 -6 4 -13 0 -17 -8 -6 -17 2 -19 24 -5 13 8 13 13 2 31 -16
25 -1 42 27 31 14 -5 14 -3 2 11 -11 14 -11 20 -1 32 11 13 8 14 -21 11 -34
-4 -86 24 -71 38 3 4 -1 4 -10 1 -20 -8 -33 12 -19 29 16 19 -28 18 -60 -1z"/>
<path d="M1383 361 c-6 -3 -9 -16 -8 -29 1 -12 -3 -26 -9 -30 -16 -12 -41 -9
-42 6 -3 25 -5 27 -14 12 -7 -11 -11 -8 -20 15 l-12 30 -10 -25 c-7 -19 -5
-27 8 -37 9 -7 21 -10 25 -7 17 10 31 -7 18 -22 -9 -11 -9 -17 0 -28 13 -15
-1 -32 -18 -21 -5 3 -12 1 -16 -4 -3 -6 3 -15 14 -20 27 -15 34 -14 27 5 -3 8
-2 12 3 9 5 -3 8 7 6 23 -4 35 9 62 19 37 6 -17 26 -12 26 6 0 6 -5 7 -12 3
-6 -4 -8 -3 -5 4 4 5 17 8 30 5 18 -4 19 -3 7 6 -19 13 -1 14 20 1 12 -8 12
-10 1 -10 -8 0 -12 -3 -8 -6 10 -10 28 7 20 19 -10 14 -10 38 0 53 7 12 -33
16 -50 5z m27 -35 c-7 -7 -14 -6 -22 3 -11 10 -9 11 7 5 18 -7 19 -6 5 12 -14
18 -14 18 3 5 12 -10 15 -17 7 -25z m-120 -11 c11 -13 10 -14 -4 -9 -9 3 -16
10 -16 15 0 13 6 11 20 -6z"/>
<path d="M1946 354 c-3 -8 -12 -11 -20 -8 -9 3 -17 -3 -21 -17 -5 -16 -9 -18
-15 -9 -7 11 -13 10 -34 -4 -14 -9 -26 -13 -26 -9 0 5 -5 0 -11 -9 -15 -27
-26 -22 -49 20 -12 20 -19 29 -16 19 4 -12 2 -16 -5 -11 -7 4 -10 1 -7 -7 3
-8 10 -13 16 -12 6 2 9 -6 7 -17 -3 -13 1 -17 11 -13 12 4 18 -7 16 -28 -1 -4
10 -6 23 -5 14 0 23 6 21 11 -2 6 -9 9 -15 7 -6 -1 -11 2 -11 7 0 10 27 24 50
25 8 1 14 8 12 16 -2 13 -1 13 10 0 12 -14 15 -14 30 1 9 10 13 20 10 24 -4 3
1 3 11 -1 11 -4 17 -1 17 7 1 8 7 3 14 -9 l13 -24 0 29 c0 30 -22 41 -31 17z"/>
<path d="M1991 357 c-6 -8 -9 -21 -6 -29 3 -7 -1 -22 -9 -33 -12 -17 -16 -17
-31 -5 -15 12 -16 12 -13 -6 2 -11 -2 -18 -9 -16 -7 1 -13 -2 -13 -8 0 -14 13
-13 45 4 15 8 35 12 44 8 14 -5 14 -3 3 10 -9 11 -10 18 -2 23 6 3 8 11 5 16
-3 5 1 6 11 2 14 -5 15 -3 4 18 -7 13 -14 25 -15 27 -1 1 -7 -4 -14 -11z"/>
<path d="M656 318 c-18 -21 -30 -28 -35 -20 -4 8 -11 5 -19 -8 -7 -12 -8 -20
-2 -20 5 0 10 6 10 13 1 6 7 1 14 -12 17 -30 61 -38 63 -10 1 10 -2 19 -8 19
-5 0 -9 -4 -9 -8 0 -5 -7 -9 -15 -9 -8 0 -12 4 -9 8 2 4 -2 10 -8 13 -7 3 -3
3 9 0 16 -4 22 -1 20 8 -2 7 -2 10 0 6 3 -5 9 -8 15 -8 7 0 7 4 -1 13 -8 10
-7 17 1 25 6 6 9 14 7 17 -3 2 -18 -10 -33 -27z"/>
<path d="M1695 329 c-5 -15 -16 -16 -60 -10 -5 1 -3 6 5 11 8 5 11 10 6 10 -5
0 -20 -12 -33 -27 -16 -16 -27 -22 -32 -15 -4 6 -16 -3 -31 -25 -20 -30 -26
-33 -35 -20 -10 14 -13 13 -24 -5 -11 -18 -11 -20 3 -15 22 9 27 -5 9 -28 -14
-18 -15 -18 -9 -2 4 13 2 17 -6 14 -7 -2 -12 -10 -11 -16 4 -17 -14 -13 -21 5
-3 8 -11 12 -16 9 -6 -4 -9 -1 -8 6 2 6 -3 14 -11 17 -8 3 -11 0 -7 -6 8 -14
-24 -31 -44 -24 -12 4 -13 2 -2 -9 17 -18 15 -27 -8 -39 -27 -14 -45 -3 -29
16 10 12 14 12 20 2 4 -7 11 -9 14 -6 4 4 3 13 -1 20 -14 21 -13 37 1 32 7 -3
16 0 21 7 5 9 2 10 -9 6 -22 -8 -21 -5 5 17 18 15 20 16 15 2 -4 -9 -2 -16 3
-16 6 0 10 5 10 11 0 5 4 8 9 5 5 -3 14 0 20 8 9 11 6 13 -17 12 -16 -1 -37
-8 -46 -15 -15 -13 -19 -13 -26 0 -6 9 -8 4 -6 -16 4 -37 -11 -68 -30 -61 -8
3 -14 1 -14 -4 0 -18 -39 -31 -60 -20 -14 8 -20 8 -20 0 0 -8 -6 -8 -20 0 -15
8 -20 8 -20 -2 -1 -7 -7 -2 -14 11 l-14 24 -6 -21 c-4 -12 -14 -22 -22 -22 -8
0 -14 -5 -14 -10 0 -7 6 -7 19 0 14 7 22 7 26 0 4 -6 12 -7 18 -3 18 11 51 10
59 -2 5 -7 8 -6 8 1 0 6 10 10 23 9 12 -1 28 5 35 14 12 14 13 14 8 -2 -3 -11
-2 -16 4 -12 6 3 10 2 10 -4 0 -7 8 -7 24 -1 16 6 27 5 36 -3 9 -9 11 -9 10 3
-1 8 -2 24 -1 35 1 17 3 18 12 5 8 -13 9 -12 7 4 -4 26 17 31 39 9 25 -24 51
-25 58 -3 5 16 15 18 60 11 6 -1 3 -6 -5 -12 -13 -9 -13 -10 0 -6 8 2 15 11
14 19 -1 7 8 15 20 16 15 1 17 -1 7 -7 -10 -6 -10 -10 -2 -16 9 -5 9 -10 1
-20 -8 -9 -5 -12 12 -11 12 0 23 8 25 16 4 13 3 13 -6 0 -6 -8 -11 -10 -12 -5
-6 44 -5 55 10 60 16 5 24 45 9 45 -4 0 -8 -4 -8 -8 0 -5 -7 -9 -15 -9 -8 0
-12 4 -9 8 2 4 -2 10 -8 13 -7 3 -3 3 9 0 19 -4 22 -2 16 13 -7 17 -6 17 11 1
18 -19 41 -25 31 -9 -3 5 0 13 6 17 8 5 9 3 4 -7 -8 -12 -6 -12 8 0 13 10 17
10 17 1 0 -9 4 -9 13 -2 8 7 15 6 23 -2 9 -10 7 -16 -8 -25 -11 -7 -17 -15
-14 -18 3 -3 12 -1 19 6 12 9 18 6 33 -16 10 -16 19 -36 19 -45 1 -10 5 -21
10 -25 4 -5 5 0 2 10 -4 9 -2 17 4 17 6 0 8 4 4 9 -9 16 15 24 31 10 10 -8 12
-15 4 -23 -5 -5 -10 -14 -10 -20 0 -5 3 -6 6 -3 4 3 15 2 26 -4 17 -9 18 -8 9
10 -16 28 -14 30 19 29 16 -1 27 -5 24 -10 -3 -4 -1 -8 4 -8 6 0 13 8 16 17 9
21 -21 45 -45 38 -9 -3 -22 2 -30 12 -11 15 -11 16 1 6 21 -19 34 -16 19 5
-13 15 -12 16 3 4 11 -9 18 -10 23 -2 3 6 11 7 17 4 6 -4 8 -2 5 4 -6 8 -65
10 -96 3 -2 -1 2 -8 9 -16 16 -19 8 -27 -30 -32 -25 -2 -30 1 -28 14 2 10 -3
18 -9 18 -7 0 -13 5 -14 10 0 6 -10 20 -21 33 -12 12 -16 22 -10 22 7 0 12 4
12 9 0 17 -40 8 -45 -10z m-77 -83 c13 5 14 4 3 -4 -8 -6 -27 -9 -42 -7 -18 3
-27 0 -25 -8 1 -7 1 -8 -2 -4 -2 4 -10 3 -18 -4 -19 -16 -18 -4 2 16 9 9 25
13 38 10 l21 -5 -22 11 c-17 9 -19 14 -10 24 10 10 15 8 25 -11 8 -15 18 -21
30 -18z m239 -21 c0 -8 -4 -12 -9 -9 -5 3 -6 10 -3 15 9 13 12 11 12 -6z m68
-3 c-3 -3 -11 0 -18 7 -9 10 -8 11 6 5 10 -3 15 -9 12 -12z m-30 -2 c3 -6 -1
-7 -9 -4 -18 7 -21 14 -7 14 6 0 13 -4 16 -10z"/>
<path d="M2787 343 c-2 -5 -2 -18 -1 -30 1 -13 -6 -25 -15 -28 -18 -5 -27 -45
-10 -45 5 0 9 5 9 11 0 5 4 8 9 5 5 -3 14 1 21 9 10 12 10 15 0 15 -9 0 -9 4
1 17 12 14 12 16 0 8 -10 -5 -12 -4 -7 4 4 6 12 9 17 6 11 -7 11 -3 3 19 -6
17 -20 21 -27 9z"/>
<path d="M1132 323 c2 -10 -2 -17 -9 -15 -7 1 -13 -2 -13 -8 0 -14 22 -12 42
3 15 12 15 14 -3 25 -17 11 -20 10 -17 -5z"/>
<path d="M897 319 c-9 -6 -15 -14 -12 -18 2 -5 -4 -16 -15 -26 -11 -10 -20
-14 -20 -8 0 5 -15 10 -32 11 -18 1 -48 3 -65 5 -23 3 -38 -2 -49 -15 -11 -12
-13 -18 -5 -18 7 0 9 -4 6 -10 -8 -14 -66 -6 -79 11 -20 25 -43 19 -43 -12 0
-23 3 -26 14 -18 7 6 10 15 7 20 -3 5 -1 9 4 9 6 0 13 -7 16 -16 4 -10 13 -13
27 -9 18 6 20 4 14 -14 -5 -16 -3 -20 9 -15 9 3 13 11 9 17 -3 5 -1 7 5 4 13
-9 5 -42 -14 -58 -11 -9 -17 -9 -28 0 -11 9 -15 9 -19 -1 -4 -9 -6 -10 -6 -1
-1 7 -8 10 -16 7 -22 -9 -8 -23 16 -19 12 3 31 0 41 -6 14 -8 18 -8 14 -1 -7
12 63 10 82 -2 7 -4 12 -3 12 2 0 10 42 8 61 -4 7 -4 9 -3 5 4 -7 12 62 10 82
-2 7 -4 12 -3 12 2 0 6 10 8 22 4 16 -4 19 -2 13 9 -7 12 -6 12 8 1 14 -12 16
-11 14 7 -1 12 -6 20 -12 17 -6 -2 -19 2 -30 10 -24 18 -36 18 -29 -1 3 -8 11
-13 16 -12 6 1 13 -5 15 -13 4 -13 3 -13 -6 0 -6 8 -11 10 -11 4 0 -7 -11 -11
-24 -10 -13 0 -22 5 -18 10 3 5 0 6 -6 2 -15 -9 -26 12 -13 28 6 7 8 16 4 19
-12 12 -19 7 -20 -15 -3 -32 -29 -56 -45 -39 -11 10 -10 11 5 5 12 -4 16 -2
12 8 -3 7 -13 14 -23 14 -9 1 -25 5 -35 9 -13 5 -16 4 -11 -9 3 -8 11 -14 16
-13 6 1 13 -5 15 -13 4 -13 3 -13 -6 0 -6 8 -11 10 -11 4 0 -7 -11 -11 -24
-10 -13 0 -22 5 -18 10 3 5 0 6 -6 2 -16 -9 -26 13 -12 29 8 9 8 15 0 20 -8 5
-8 11 0 20 7 8 9 18 6 24 -7 11 13 9 32 -2 6 -5 18 -5 25 0 20 13 36 12 31 -2
-3 -7 0 -16 7 -21 9 -5 10 -2 6 10 -4 9 -3 15 2 11 5 -3 11 -2 14 2 2 5 2 2 0
-6 -2 -9 2 -11 13 -7 9 4 23 1 30 -5 16 -13 19 2 3 18 -8 8 -7 13 2 18 7 5 10
4 5 -3 -3 -6 -2 -13 3 -16 5 -3 11 1 15 9 3 8 2 15 -3 15 -4 0 -8 7 -8 16 0
12 5 10 18 -7 10 -13 19 -30 20 -36 3 -28 4 -32 10 -38 4 -3 20 -8 37 -10 23
-3 29 0 28 13 0 9 -5 21 -11 25 -5 5 1 5 14 2 17 -5 21 -4 16 5 -6 9 -3 9 14
1 14 -8 27 -8 39 -2 10 5 23 7 28 3 13 -9 13 -55 0 -64 -5 -3 -11 -16 -13 -29
-3 -19 -1 -20 14 -8 25 18 43 41 43 53 0 6 -5 4 -10 -4 -6 -10 -8 -1 -5 28 3
38 1 44 -26 57 -16 9 -29 18 -29 21 0 3 4 3 9 -1 5 -3 12 -1 16 5 4 6 11 7 17
4 6 -4 8 -2 4 4 -9 15 -44 11 -51 -6 -3 -8 2 -20 12 -27 15 -11 15 -13 -5 -24
-12 -6 -22 -8 -22 -3 0 10 -51 9 -69 -2 -7 -5 -10 -13 -8 -20 3 -7 -4 -12 -17
-13 -11 0 -15 1 -8 4 10 4 8 8 -5 18 -17 13 -17 14 0 32 19 22 22 33 6 33 -5
0 -8 -4 -5 -9 3 -5 -1 -11 -9 -15 -9 -3 -19 3 -25 17 -11 22 -11 22 6 2 15
-18 16 -18 10 -2 -3 10 -6 21 -6 23 0 7 -14 4 -33 -7z"/>
<path d="M1930 314 c-14 -8 -18 -13 -9 -10 9 2 22 -1 28 -7 6 -6 14 -7 18 -2
5 4 2 10 -5 12 -6 3 -10 9 -6 14 7 12 4 11 -26 -7z"/>
<path d="M2824 313 c-8 -18 -11 -29 -13 -49 -1 -15 -47 -35 -64 -28 -8 3 -20
-2 -27 -11 -15 -18 0 -20 20 -2 12 10 12 9 1 -5 -17 -22 2 -24 19 -3 9 11 17
12 23 6 16 -16 57 50 43 68 -9 12 -8 13 3 6 8 -5 12 -4 8 1 -3 5 3 10 13 10
10 0 16 -5 13 -10 -4 -5 -1 -6 7 -1 10 6 9 11 -5 22 -25 17 -31 17 -41 -4z"/>
<path d="M516 305 c-8 -8 -18 -24 -21 -36 -4 -13 -12 -18 -21 -15 -8 3 -13 2
-10 -3 9 -15 -24 -22 -46 -10 -16 9 -22 8 -29 -2 -5 -8 -13 -15 -19 -15 -23
-3 -24 -5 -10 -14 20 -13 33 -12 24 2 -5 7 -3 8 6 3 8 -5 11 -4 6 3 -3 6 -3
13 2 16 8 5 12 -8 13 -47 0 -15 3 -16 15 -6 10 8 12 15 4 23 -5 5 -10 15 -10
20 0 6 5 4 10 -4 9 -13 11 -13 20 0 7 11 10 11 10 2 0 -7 5 -10 10 -7 6 4 7
12 4 18 -4 7 -3 8 1 4 5 -4 15 3 22 15 l14 23 -7 -25 c-6 -24 -5 -24 12 -8 13
13 15 20 6 31 -10 11 -9 17 3 27 12 10 15 10 15 0 0 -10 3 -10 14 -1 8 7 17 8
20 3 9 -15 -4 -21 -31 -16 -23 4 -25 3 -13 -11 10 -12 10 -18 -1 -31 -11 -14
-10 -15 7 -12 12 2 18 -2 16 -11 -3 -12 0 -12 13 -1 9 8 13 20 9 32 -4 12 1
24 12 32 12 9 14 15 5 20 -24 15 -60 16 -75 1z m54 -70 c0 -5 -5 -3 -10 5 -5
8 -10 20 -10 25 0 6 5 3 10 -5 5 -8 10 -19 10 -25z"/>
<path d="M2230 312 c0 -7 -4 -10 -10 -7 -5 3 -10 2 -10 -3 0 -6 7 -13 16 -16
8 -3 12 -11 8 -17 -4 -8 -3 -9 4 -5 7 4 12 3 12 -2 0 -14 -27 -22 -47 -16 -14
4 -15 3 -5 -4 8 -5 13 -13 13 -18 -1 -5 5 -9 12 -9 6 0 11 5 10 12 -2 7 7 10
25 7 22 -4 25 -3 15 7 -7 7 -13 17 -13 22 0 5 9 -1 20 -14 10 -13 19 -19 20
-14 0 6 -16 28 -35 50 -19 22 -34 34 -35 27z m25 -22 c3 -6 -1 -7 -9 -4 -18 7
-21 14 -7 14 6 0 13 -4 16 -10z"/>
<path d="M284 296 c-21 -16 -16 -30 8 -21 8 3 15 12 15 20 0 18 1 18 -23 1z"/>
<path d="M1008 288 c-21 -21 -10 -24 17 -5 10 8 14 16 9 19 -5 3 -17 -3 -26
-14z"/>
<path d="M2005 300 c-3 -5 4 -14 16 -20 27 -15 30 -10 8 12 -10 10 -21 13 -24
8z"/>
<path d="M2481 296 c-7 -8 -20 -12 -29 -9 -15 6 -15 5 -3 -10 12 -15 11 -20
-4 -37 -10 -11 -21 -17 -25 -15 -4 3 -14 -2 -21 -11 -11 -14 -14 -14 -23 -2
-6 8 -22 20 -35 27 -19 11 -25 11 -32 0 -5 -8 -13 -15 -19 -15 -23 -3 -24 -5
-10 -14 20 -13 33 -12 24 2 -5 7 -3 8 6 3 8 -5 11 -4 6 3 -3 6 -3 13 2 16 8 5
12 -8 13 -47 0 -15 3 -16 15 -6 10 8 12 15 4 23 -5 5 -10 14 -10 20 0 5 9 -1
20 -14 24 -28 25 -34 3 -51 -15 -11 -16 -11 -5 1 6 8 12 19 12 25 -1 5 -9 0
-19 -12 -17 -21 -20 -21 -26 -5 -6 16 -7 16 -19 0 -11 -16 -69 -21 -59 -5 2 4
12 5 22 2 12 -3 17 1 17 15 0 11 -4 20 -8 20 -4 0 -8 -5 -8 -11 0 -5 -4 -8 -9
-4 -5 3 -17 -5 -25 -17 -9 -12 -16 -17 -16 -11 0 7 -7 10 -15 7 -26 -10 -7
-22 30 -18 19 1 35 -2 35 -7 0 -6 5 -7 11 -3 20 12 69 12 69 0 0 -7 3 -7 8 1
4 7 18 11 29 9 12 -3 24 1 27 10 3 7 0 13 -6 11 -6 -1 -13 5 -15 13 -4 13 -3
13 7 0 10 -13 11 -12 7 5 -3 15 1 21 14 21 10 0 15 -4 13 -8 -3 -4 0 -8 6 -8
7 0 9 8 5 20 -6 19 3 25 28 21 5 -1 6 9 2 21 -5 19 -4 20 5 8 10 -12 11 -11 7
7 -3 13 0 26 5 30 7 4 8 1 3 -7 -5 -8 -3 -11 4 -9 7 3 13 9 13 14 0 16 -18 17
-31 1z"/>
<path d="M2506 265 c-16 -24 -33 -43 -39 -42 -6 1 -11 -7 -12 -18 0 -12 -6
-20 -16 -19 -11 1 -16 -6 -15 -21 0 -13 4 -21 9 -18 4 2 7 0 7 -6 0 -7 8 -7
24 -1 16 6 28 5 36 -3 10 -9 12 -8 7 4 -3 9 0 28 8 42 12 23 11 25 -12 25 -17
0 -21 -4 -14 -11 16 -16 14 -25 -9 -37 -27 -14 -45 -3 -29 16 10 12 14 12 20
2 4 -7 11 -9 15 -5 4 3 2 13 -5 20 -9 11 -8 17 4 27 12 10 15 10 15 0 0 -10 3
-10 15 0 8 7 12 16 9 21 -3 5 0 9 5 9 6 0 11 4 11 10 0 5 -8 6 -17 3 -15 -6
-16 -5 -3 9 14 15 16 15 24 -3 5 -10 12 -19 16 -19 4 0 11 9 16 19 8 18 10 18
24 3 13 -14 12 -15 -3 -9 -9 3 -17 2 -17 -3 0 -6 5 -10 11 -10 5 0 8 -4 5 -9
-3 -5 0 -14 8 -20 11 -9 13 -6 12 16 -1 26 -36 90 -36 66 0 -12 -32 -13 -41
-1 -3 5 -18 -12 -33 -37z"/>
<path d="M1147 293 c-9 -16 0 -69 17 -98 9 -16 15 -23 12 -14 -3 13 0 15 16
11 14 -3 16 -7 7 -13 -8 -5 0 -7 20 -7 27 1 30 3 15 11 -16 9 -16 11 1 23 10
8 15 17 11 21 -4 4 -11 1 -16 -7 -7 -11 -11 -11 -24 -1 -9 8 -16 9 -16 3 0 -6
6 -13 13 -15 9 -4 9 -6 0 -6 -19 -1 -27 21 -12 33 12 9 9 16 -13 39 -14 15
-28 24 -31 20z m26 -56 c-18 -11 -25 -5 -17 16 4 13 9 14 19 4 11 -10 10 -14
-2 -20z"/>
<path d="M1453 288 c3 -10 0 -24 -8 -32 -12 -12 -12 -16 4 -30 13 -12 21 -14
26 -7 3 6 3 11 -1 11 -3 0 -1 7 6 16 11 13 10 19 -10 37 -18 17 -22 18 -17 5z
m17 -33 c-6 -8 -8 -20 -4 -27 5 -10 4 -10 -6 -1 -11 10 -11 15 0 28 7 8 15 15
17 15 3 0 0 -7 -7 -15z"/>
<path d="M2633 287 c0 -6 -3 -21 -7 -33 -4 -14 -1 -26 9 -34 13 -11 16 -11 13
1 -2 9 4 13 16 11 17 -3 18 -2 6 13 -10 12 -11 18 -1 28 10 9 11 9 6 -4 -3 -9
0 -21 8 -27 11 -10 14 -6 14 17 0 22 -5 28 -21 26 -12 0 -26 2 -32 7 -6 4 -11
2 -11 -5z m8 -44 c-12 -20 -14 -14 -5 12 4 9 9 14 11 11 3 -2 0 -13 -6 -23z"/>
<path d="M2711 282 c-5 -10 -9 -24 -8 -32 1 -8 -2 -16 -7 -17 -10 -1 -26 -24
-26 -36 0 -5 9 -5 20 -2 14 5 20 2 20 -9 0 -9 5 -16 10 -16 17 0 11 27 -7 34
-14 6 -12 11 12 36 16 17 23 30 16 30 -7 0 -10 4 -6 9 3 5 1 12 -4 16 -6 3
-14 -3 -20 -13z m14 -22 c3 -5 1 -10 -4 -10 -6 0 -11 5 -11 10 0 6 2 10 4 10
3 0 8 -4 11 -10z"/>
<path d="M236 278 c11 -17 -7 -29 -24 -16 -13 11 -14 11 -11 -1 7 -21 24 -24
41 -8 11 12 16 12 26 0 7 -7 10 -13 6 -13 -3 0 -1 -7 6 -15 7 -8 18 -14 24
-14 16 3 46 -12 46 -23 0 -5 -4 -7 -9 -3 -5 3 -17 -5 -25 -17 -9 -12 -16 -17
-16 -11 0 7 -7 10 -15 7 -26 -10 -7 -22 30 -18 19 1 35 -2 35 -7 0 -6 5 -7 11
-3 20 12 69 12 69 0 0 -7 3 -7 8 1 4 7 18 11 29 9 12 -3 24 1 27 10 3 7 0 13
-6 11 -6 -1 -13 5 -15 13 -4 13 -3 13 7 0 10 -13 11 -12 7 5 -3 15 1 21 14 21
10 0 15 -4 13 -8 -3 -4 0 -8 5 -8 13 0 14 10 2 28 -12 20 -16 19 -40 -2 -12
-11 -21 -15 -21 -11 0 5 -11 -6 -24 -23 -20 -28 -25 -30 -31 -15 -6 17 -7 17
-19 1 -11 -16 -69 -21 -59 -5 2 4 13 5 24 2 15 -5 18 -3 13 12 -4 11 -3 14 3
6 6 -8 13 -7 28 4 20 15 20 15 -2 9 -15 -5 -28 -1 -42 13 -10 10 -22 17 -25
14 -3 -3 -10 6 -17 20 -7 15 -17 23 -25 20 -8 -3 -16 1 -19 9 -3 8 -12 15 -20
15 -8 0 -12 -4 -9 -9z m68 -44 c3 -8 2 -12 -4 -9 -6 3 -10 10 -10 16 0 14 7
11 14 -7z m142 -72 c-17 -16 -18 -16 -5 5 7 12 15 20 18 17 3 -2 -3 -12 -13
-22z"/>
<path d="M1665 274 c-18 -14 -18 -15 3 -43 13 -18 18 -32 12 -36 -6 -3 -10
-11 -10 -17 0 -6 3 -8 6 -5 4 3 15 2 26 -4 17 -9 18 -8 9 10 -16 28 -14 30 19
29 16 -1 27 -5 24 -10 -3 -4 -1 -8 4 -8 6 0 12 6 15 13 6 17 -29 61 -38 47 -4
-6 -16 -8 -27 -4 -13 4 -18 2 -14 -4 3 -6 1 -14 -5 -18 -8 -5 -9 -3 -4 6 6 9
4 11 -6 5 -12 -8 -12 -6 -1 8 8 9 10 22 6 29 -6 11 -5 11 8 0 12 -10 18 -10
27 2 9 11 7 14 -12 14 -13 0 -32 -7 -42 -14z m96 -51 c13 -16 12 -17 -3 -4
-17 13 -22 21 -14 21 2 0 10 -8 17 -17z m-26 -3 c3 -6 -1 -7 -9 -4 -18 7 -21
14 -7 14 6 0 13 -4 16 -10z"/>
<path d="M2850 275 c10 -12 10 -18 -1 -32 -12 -15 -12 -16 3 -10 12 4 21 0 28
-13 6 -11 15 -20 21 -20 6 0 1 14 -11 31 -12 16 -20 33 -17 36 8 8 28 -7 22
-17 -3 -5 10 -7 30 -6 19 2 32 -1 29 -6 -3 -5 -14 -6 -25 -3 -21 7 -23 -13 -4
-27 15 -12 27 -9 19 4 -4 6 -3 8 4 4 5 -3 13 0 15 6 4 8 6 7 7 -4 2 -10 3 -23
4 -28 0 -6 7 -15 15 -19 9 -6 10 -11 2 -15 -6 -4 -11 -2 -11 5 0 8 -5 7 -17
-2 -16 -13 -17 -12 -4 4 9 11 10 17 2 17 -6 0 -14 -7 -17 -15 -4 -8 -17 -13
-34 -12 -15 1 -26 6 -23 10 2 4 12 5 22 2 12 -3 17 1 17 15 0 11 -4 20 -8 20
-4 0 -8 -5 -8 -11 0 -5 -4 -8 -9 -4 -5 3 -17 -5 -25 -17 -9 -12 -16 -17 -16
-11 0 7 -7 10 -15 7 -25 -10 -7 -22 27 -19 18 2 38 -1 45 -6 6 -6 14 -6 17 -1
3 5 21 8 40 7 20 -1 36 1 36 5 0 3 -9 25 -20 48 -11 22 -20 46 -20 53 0 6 -7
9 -15 5 -8 -3 -22 -3 -31 1 -13 5 -13 8 -2 15 9 7 8 8 -5 4 -11 -3 -24 -3 -30
1 -7 4 -20 9 -31 10 -16 3 -17 1 -6 -12z"/>
<path d="M139 251 c-22 -24 -29 -38 -34 -58 -2 -10 -7 -27 -11 -38 -7 -18 -6
-18 9 -7 9 8 22 10 29 6 21 -13 36 -13 41 1 3 7 -2 12 -11 12 -48 0 -57 3 -42
13 13 9 13 10 0 10 -13 0 -13 1 0 10 8 5 27 7 42 5 27 -5 47 9 28 20 -5 3 -10
1 -10 -6 0 -8 -4 -8 -15 1 -11 9 -13 16 -5 24 12 12 13 26 3 25 -5 0 -15 -9
-24 -18z m15 -29 c2 -4 -4 -8 -14 -8 -10 0 -16 4 -14 8 3 4 9 8 14 8 5 0 11
-4 14 -8z"/>
<path d="M901 244 c-9 -20 -14 -24 -25 -15 -9 8 -22 8 -40 1 -22 -8 -28 -6
-38 10 -9 14 -15 16 -26 8 -9 -8 -16 -8 -24 0 -15 15 -41 -18 -27 -35 7 -7 6
-13 -1 -18 -5 -3 -10 -11 -10 -17 0 -6 3 -8 6 -5 4 3 15 2 26 -4 17 -9 18 -8
9 10 -16 28 -14 30 19 29 16 -1 27 -5 24 -10 -3 -4 0 -8 6 -8 7 0 10 6 7 13
-3 8 1 14 9 14 7 0 11 -4 8 -9 -3 -4 0 -16 6 -25 11 -17 11 -17 6 0 -3 9 -1
17 5 17 6 0 8 4 4 9 -9 16 15 24 31 10 10 -8 12 -15 4 -23 -5 -5 -10 -14 -10
-20 0 -5 3 -6 6 -3 4 3 15 2 26 -4 17 -9 18 -8 9 10 -16 28 -14 34 10 28 15
-4 18 -2 10 7 -6 7 -8 16 -4 19 3 4 1 7 -5 7 -6 0 -9 7 -6 15 10 26 -2 17 -15
-11z m-164 -19 c0 -8 -4 -12 -9 -9 -5 3 -6 10 -3 15 9 13 12 11 12 -6z m38 -5
c3 -6 -1 -7 -9 -4 -18 7 -21 14 -7 14 6 0 13 -4 16 -10z"/>
<path d="M1980 260 c0 -5 -8 -7 -17 -6 -13 1 -17 -8 -19 -34 -1 -19 1 -29 3
-22 5 13 24 17 22 5 -4 -27 1 -33 21 -21 16 11 17 14 5 21 -9 4 -12 13 -9 19
5 8 1 9 -10 5 -9 -4 -15 -3 -11 2 3 5 2 11 -2 14 -5 2 -2 2 5 0 7 -1 23 2 34
8 11 6 18 7 15 2 -4 -5 8 -10 24 -10 26 0 28 2 13 10 -22 12 -74 17 -74 7z"/>
<path d="M2832 258 c-15 -19 -19 -36 -7 -37 6 -1 10 2 10 7 0 4 4 13 9 20 11
18 2 26 -12 10z"/>
<path d="M235 238 c-11 -6 -27 -21 -35 -32 -16 -22 -22 -68 -8 -60 4 3 8 1 8
-5 0 -7 8 -7 24 -1 16 6 28 5 36 -3 10 -9 12 -9 8 3 -3 8 -1 26 4 40 9 23 10
24 22 7 12 -15 15 -15 26 -2 7 8 9 16 4 16 -5 1 -13 2 -19 4 -5 1 -15 3 -21 3
-6 1 -15 11 -20 21 -7 17 -12 18 -29 9z m29 -24 c3 -9 -1 -11 -12 -7 -15 6
-15 5 -2 -11 13 -16 12 -20 -5 -32 -21 -16 -41 -13 -38 5 2 6 -1 11 -7 11 -5
0 -1 11 10 23 23 26 46 31 54 11z"/>
<path d="M219 199 c-8 -15 -8 -19 0 -15 6 4 11 3 11 -3 0 -5 -6 -12 -12 -14
-7 -3 -8 -6 -3 -6 6 0 16 3 24 8 12 7 12 13 3 24 -7 7 -9 17 -5 20 3 4 3 7 0
7 -3 0 -11 -10 -18 -21z"/>
<path d="M1080 240 c-8 -5 -23 -7 -32 -4 -13 4 -18 0 -18 -15 0 -12 5 -21 11
-21 6 0 8 7 5 16 -5 14 -4 15 8 5 8 -7 16 -8 18 -4 3 4 3 3 2 -4 -2 -6 2 -14
9 -17 7 -3 3 -4 -9 -1 -14 4 -21 0 -21 -10 0 -21 13 -19 37 5 22 22 24 29 12
47 -5 8 -13 9 -22 3z"/>
<path d="M2536 233 c-8 -20 -8 -23 5 -23 5 0 8 4 5 8 -2 4 4 8 14 8 10 0 16
-5 13 -10 -3 -5 -2 -6 4 -3 9 5 15 -4 41 -56 3 -5 -5 -4 -17 2 -16 9 -21 9
-21 -1 0 -9 -3 -9 -10 2 -8 12 -12 13 -19 2 -6 -11 -10 -10 -15 4 -3 9 -4 19
-1 22 3 3 5 1 5 -4 0 -14 39 -12 44 2 3 7 -7 11 -27 10 -23 -2 -32 -7 -31 -19
1 -9 -2 -17 -8 -17 -5 0 -7 -4 -3 -9 3 -6 15 -8 27 -6 12 3 27 0 34 -6 7 -5
14 -6 17 -2 6 10 89 9 105 -1 6 -3 21 4 33 16 17 18 21 19 16 5 -4 -11 -3 -16
3 -12 6 3 10 2 10 -4 0 -7 8 -7 24 -1 15 5 27 5 33 -1 7 -7 11 -2 11 15 0 28
18 56 36 55 7 0 7 -2 -1 -5 -7 -3 -9 -12 -6 -20 4 -11 9 -12 19 -3 10 8 10 15
2 29 -10 15 -15 16 -32 6 -23 -13 -45 -14 -63 -3 -7 4 -22 -6 -37 -25 -23 -28
-28 -31 -39 -18 -6 8 -19 15 -27 15 -8 0 -15 8 -15 17 0 9 -4 20 -8 25 -5 4
-7 2 -5 -6 5 -22 -41 -20 -60 3 -20 25 -49 29 -56 9z m267 -63 c5 0 6 8 2 18
-5 14 -4 15 7 4 11 -11 10 -16 -7 -28 -21 -16 -41 -13 -37 5 1 6 -3 11 -8 11
-6 0 -5 6 2 14 11 12 14 12 22 -5 5 -10 13 -19 19 -19z m-169 15 c-4 -8 -1
-15 5 -15 6 0 11 4 11 10 0 5 13 1 30 -8 16 -9 30 -21 30 -26 0 -5 -6 -3 -14
3 -7 6 -20 9 -28 6 -18 -7 -53 19 -44 33 10 17 16 15 10 -3z"/>
<path d="M1993 225 c0 -8 4 -12 9 -9 4 3 8 9 8 15 0 5 -4 9 -8 9 -5 0 -9 -7
-9 -15z"/>
<path d="M539 223 c-1 -5 -2 -15 -3 -23 0 -8 -8 -14 -17 -14 -11 1 -16 -6 -15
-21 0 -13 4 -21 9 -18 4 2 7 0 7 -6 0 -7 8 -7 24 -1 15 5 27 5 33 -1 7 -7 11
-2 11 16 0 36 27 64 44 47 7 -7 13 -18 13 -25 0 -17 28 -15 32 3 4 12 3 12 -5
2 -7 -11 -10 -10 -16 3 -3 9 -4 21 -1 26 4 5 0 6 -8 3 -8 -3 -18 -1 -22 5 -4
8 -11 7 -20 -2 -16 -16 -61 -15 -57 2 1 6 0 11 -3 11 -3 0 -6 -3 -6 -7z m41
-43 c0 -5 -9 -14 -21 -21 -27 -14 -46 2 -24 21 10 8 15 9 15 1 0 -6 5 -11 11
-11 6 0 8 7 5 16 -3 8 -2 12 4 9 6 -3 10 -10 10 -15z"/>
<path d="M1385 220 c-3 -6 1 -7 9 -4 18 7 21 14 7 14 -6 0 -13 -4 -16 -10z"/>
<path d="M2146 215 c-6 -18 2 -45 15 -45 12 0 11 17 -1 25 -8 5 -7 11 1 21 7
8 7 14 1 14 -5 0 -12 -7 -16 -15z"/>
<path d="M2241 216 c-8 -10 -24 -13 -48 -10 -31 4 -34 2 -23 -11 18 -21 -1
-41 -25 -28 -9 6 -16 13 -16 16 4 26 0 30 -11 19 -14 -14 -19 -64 -6 -56 4 3
8 1 8 -5 0 -7 8 -7 24 -1 16 6 28 5 36 -3 10 -9 12 -9 8 3 -3 8 -1 26 4 40 8
22 11 23 21 9 12 -16 14 -15 34 0 12 11 18 23 14 30 -6 9 -11 8 -20 -3z m-96
-64 c-3 -3 -11 0 -18 7 -9 10 -8 11 6 5 10 -3 15 -9 12 -12z"/>
<path d="M136 186 c6 -16 34 -17 34 -1 0 6 -9 11 -19 12 -12 1 -18 -3 -15 -11z"/>
<path d="M607 193 c-4 -3 -7 -11 -7 -17 0 -6 5 -4 10 4 7 11 10 11 10 2 0 -7
5 -10 10 -7 6 4 8 11 5 16 -7 11 -19 12 -28 2z"/>
<path d="M955 192 c3 -3 13 -7 23 -8 9 -1 26 -5 36 -9 14 -6 17 -5 12 3 -5 8
-1 10 11 5 10 -3 15 -2 10 2 -4 5 -28 9 -52 10 -25 1 -43 0 -40 -3z"/>
<path d="M2300 190 c-8 -5 -12 -11 -10 -14 3 -2 14 2 24 10 22 15 10 19 -14 4z"/>
<path d="M2940 190 c-8 -5 -12 -11 -10 -14 3 -2 14 2 24 10 22 15 10 19 -14 4z"/>
<path d="M999 162 c6 -2 8 -9 5 -14 -4 -6 -2 -8 4 -4 6 3 13 2 17 -4 4 -7 12
-7 24 0 10 5 22 6 26 2 5 -4 5 -2 2 5 -4 6 -2 13 4 15 7 2 -12 4 -41 4 -29 0
-48 -2 -41 -4z"/>
<path d="M110 139 c0 -5 5 -7 10 -4 6 3 10 8 10 11 0 2 -4 4 -10 4 -5 0 -10
-5 -10 -11z"/>
</g>
</svg>
